<?xml version="1.0" encoding="UTF-8"?>
<svg version="1.1" xmlns="http://www.w3.org/2000/svg" width="499" height="499">
<path d="M0 0 C11.88 0 23.76 0 36 0 C36 3.96 36 7.92 36 12 C39.96 12 43.92 12 48 12 C48.495 17.445 48.495 17.445 49 23 C51.83203125 23.22786458 54.6640625 23.45572917 57.49609375 23.68359375 C60 24 60 24 61 25 C61.14310287 28.6691577 61.04221662 32.32715441 61 36 C64.96 36 68.92 36 73 36 C73 39.96 73 43.92 73 48 C92.47 48 111.94 48 132 48 C132 44.04 132 40.08 132 36 C137.94 35.505 137.94 35.505 144 35 C144.33 31.37 144.66 27.74 145 24 C160.84 24 176.68 24 193 24 C193 52.05 193 80.1 193 109 C189.04 109 185.08 109 181 109 C181 120.88 181 132.76 181 145 C184.96 145 188.92 145 193 145 C193 148.96 193 152.92 193 157 C196.96 157 200.92 157 205 157 C205 161.29 205 165.58 205 170 C197.08 170 189.16 170 181 170 C181 173.96 181 177.92 181 182 C177.37 182 173.74 182 170 182 C170.0309375 184.6915625 170.0309375 184.6915625 170.0625 187.4375 C170.0838122 189.29166122 170.07226502 191.14712498 170 193 C169 194 169 194 165.58178711 194.11352539 C164.06363012 194.11336628 162.54546771 194.10767226 161.02734375 194.09765625 C160.22970108 194.0962413 159.43205841 194.09482635 158.61024475 194.09336853 C156.05262565 194.08775316 153.49509282 194.07519812 150.9375 194.0625 C149.20768355 194.05748698 147.47786574 194.05292373 145.74804688 194.04882812 C141.49866447 194.03777875 137.24934688 194.02050386 133 194 C133.33 197.3 133.66 200.6 134 204 C134.78246094 204.06058594 135.56492187 204.12117187 136.37109375 204.18359375 C137.38300781 204.26738281 138.39492188 204.35117188 139.4375 204.4375 C140.95150391 204.55931641 140.95150391 204.55931641 142.49609375 204.68359375 C145 205 145 205 146 206 C146.07226502 207.85287502 146.0838122 209.70833878 146.0625 211.5625 C146.05347656 212.57441406 146.04445313 213.58632813 146.03515625 214.62890625 C146.01775391 215.80259766 146.01775391 215.80259766 146 217 C146.78246094 216.98839844 147.56492187 216.97679687 148.37109375 216.96484375 C149.38300781 216.95582031 150.39492188 216.94679688 151.4375 216.9375 C152.44683594 216.92589844 153.45617187 216.91429687 154.49609375 216.90234375 C157 217 157 217 158 218 C158.07226502 219.85287502 158.0838122 221.70833878 158.0625 223.5625 C158.05347656 224.57441406 158.04445313 225.58632813 158.03515625 226.62890625 C158.01775391 227.80259766 158.01775391 227.80259766 158 229 C158.78246094 228.98839844 159.56492187 228.97679687 160.37109375 228.96484375 C161.38300781 228.95582031 162.39492188 228.94679688 163.4375 228.9375 C164.44683594 228.92589844 165.45617187 228.91429687 166.49609375 228.90234375 C169 229 169 229 170 230 C170.08851529 232.59359322 170.11525945 235.16039691 170.09765625 237.75390625 C170.09553383 238.91707619 170.09553383 238.91707619 170.09336853 240.10374451 C170.08775345 242.59003494 170.07519846 245.0762366 170.0625 247.5625 C170.05748694 249.24413933 170.0529237 250.92578006 170.04882812 252.60742188 C170.03777913 256.73831566 170.02050445 260.86914276 170 265 C173.63 265 177.26 265 181 265 C181 268.96 181 272.92 181 277 C184.96 277 188.92 277 193 277 C193.33 280.96 193.66 284.92 194 289 C197.63 289.33 201.26 289.66 205 290 C205 301.88 205 313.76 205 326 C221.17 326 237.34 326 254 326 C254 329.96 254 333.92 254 338 C257.96 338 261.92 338 266 338 C266 350.21 266 362.42 266 375 C262.04 375 258.08 375 254 375 C254 378.96 254 382.92 254 387 C250.04 387 246.08 387 242 387 C242 390.96 242 394.92 242 399 C229.46 399 216.92 399 204 399 C204 395.04 204 391.08 204 387 C140.64 387 77.28 387 12 387 C12 383.04 12 379.08 12 375 C8.04 375 4.08 375 0 375 C0 355.2 0 335.4 0 315 C-3.96 315 -7.92 315 -12 315 C-12.33 307.08 -12.66 299.16 -13 291 C-16.63 290.67 -20.26 290.34 -24 290 C-24.33 282.08 -24.66 274.16 -25 266 C-28.63 266 -32.26 266 -36 266 C-37 265 -37 265 -37.12025452 262.60191345 C-37.11803391 261.53824051 -37.11581329 260.47456757 -37.11352539 259.37866211 C-37.11344986 258.17749252 -37.11337433 256.97632294 -37.11329651 255.73875427 C-37.10813522 254.4314888 -37.10297394 253.12422333 -37.09765625 251.77734375 C-37.09579198 250.43355868 -37.09436812 249.08977293 -37.09336853 247.74598694 C-37.08954402 244.20317723 -37.07971432 240.6604083 -37.06866455 237.11761475 C-37.05844899 233.50484773 -37.0538706 229.89207416 -37.04882812 226.27929688 C-37.03809198 219.18617961 -37.02049572 212.09309675 -37 205 C-32.71 205 -28.42 205 -24 205 C-24 197.41 -24 189.82 -24 182 C-26.9390625 182.0309375 -26.9390625 182.0309375 -29.9375 182.0625 C-31.95832876 182.08377188 -33.98035801 182.07244053 -36 182 C-37 181 -37 181 -37.09765625 178.49609375 C-37.04882812 174.24804688 -37.04882812 174.24804688 -37 170 C-40.96 170 -44.92 170 -49 170 C-49 166.04 -49 162.08 -49 158 C-52.96 158 -56.92 158 -61 158 C-61 154.04 -61 150.08 -61 146 C-64.96 146 -68.92 146 -73 146 C-73 141.71 -73 137.42 -73 133 C-69.37 132.67 -65.74 132.34 -62 132 C-61.67 128.37 -61.34 124.74 -61 121 C-55.555 120.505 -55.555 120.505 -50 120 C-49.90912109 117.52693359 -49.90912109 117.52693359 -49.81640625 115.00390625 C-49.73202063 112.856761 -49.64737165 110.70962609 -49.5625 108.5625 C-49.52318359 107.47388672 -49.48386719 106.38527344 -49.44335938 105.26367188 C-49.40146484 104.22919922 -49.35957031 103.19472656 -49.31640625 102.12890625 C-49.27974854 101.17056885 -49.24309082 100.21223145 -49.20532227 99.22485352 C-49 97 -49 97 -48 96 C-44.3308423 95.85689713 -40.67284559 95.95778338 -37 96 C-37 92.04 -37 88.08 -37 84 C-31.06 83.505 -31.06 83.505 -25 83 C-25.01160156 81.67484375 -25.02320313 80.3496875 -25.03515625 78.984375 C-25.04453684 77.23958474 -25.05363676 75.49479296 -25.0625 73.75 C-25.07087891 72.87730469 -25.07925781 72.00460938 -25.08789062 71.10546875 C-25.09111328 70.26113281 -25.09433594 69.41679688 -25.09765625 68.546875 C-25.10289307 67.77182617 -25.10812988 66.99677734 -25.11352539 66.19824219 C-25 64 -25 64 -24 60 C-20.04 60 -16.08 60 -12 60 C-12 48.12 -12 36.24 -12 24 C-8.04 24 -4.08 24 0 24 C0 16.08 0 8.16 0 0 Z " fill="#B46962" transform="translate(153,50)"/>
<path d="M0 0 C11.88 0 23.76 0 36 0 C36 15.84 36 31.68 36 48 C32.04 48 28.08 48 24 48 C24 51.96 24 55.92 24 60 C20.04 60 16.08 60 12 60 C12 63.96 12 67.92 12 72 C15.96 72 19.92 72 24 72 C24 87.84 24 103.68 24 120 C16.08 120 8.16 120 0 120 C0 123.96 0 127.92 0 132 C-3.96 132 -7.92 132 -12 132 C-12 135.96 -12 139.92 -12 144 C-51.93 144 -91.86 144 -133 144 C-133 140.04 -133 136.08 -133 132 C-140.92 132 -148.84 132 -157 132 C-157 124.08 -157 116.16 -157 108 C-161.29 108 -165.58 108 -170 108 C-170 104.04 -170 100.08 -170 96 C-173.63 96 -177.26 96 -181 96 C-181 88.08 -181 80.16 -181 72 C-177.04 72 -173.08 72 -169 72 C-169 79.92 -169 87.84 -169 96 C-161.08 96 -153.16 96 -145 96 C-145 88.08 -145 80.16 -145 72 C-141.04 72 -137.08 72 -133 72 C-133 68.04 -133 64.08 -133 60 C-140.92 60 -148.84 60 -157 60 C-157 56.04 -157 52.08 -157 48 C-153.04 48 -149.08 48 -145 48 C-145 44.04 -145 40.08 -145 36 C-141.04 36 -137.08 36 -133 36 C-133 32.04 -133 28.08 -133 24 C-105.28 24 -77.56 24 -49 24 C-49 27.96 -49 31.92 -49 36 C-40.75 36 -32.5 36 -24 36 C-24 32.04 -24 28.08 -24 24 C-20.04 24 -16.08 24 -12 24 C-12 20.04 -12 16.08 -12 12 C-8.04 12 -4.08 12 0 12 C0 8.04 0 4.08 0 0 Z " fill="#F8F6DD" transform="translate(298,87)"/>
<path d="M0 0 C27.39 0 54.78 0 83 0 C83 4.29 83 8.58 83 13 C79.37 13 75.74 13 72 13 C72 16.63 72 20.26 72 24 C79.92 24 87.84 24 96 24 C96 20.37 96 16.74 96 13 C99.63 13 103.26 13 107 13 C107 16.63 107 20.26 107 24 C114.92 24 122.84 24 131 24 C131 20.37 131 16.74 131 13 C127.37 13 123.74 13 120 13 C120.33 12.34 120.66 11.68 121 11 C122.81293089 11.14037521 124.6253443 11.28744889 126.4375 11.4375 C127.95150391 11.55931641 127.95150391 11.55931641 129.49609375 11.68359375 C132 12 132 12 133 13 C133.07226502 14.85287502 133.0838122 16.70833878 133.0625 18.5625 C133.05347656 19.57441406 133.04445313 20.58632813 133.03515625 21.62890625 C133.01775391 22.80259766 133.01775391 22.80259766 133 24 C134.17369141 23.98259766 134.17369141 23.98259766 135.37109375 23.96484375 C136.38300781 23.95582031 137.39492188 23.94679688 138.4375 23.9375 C139.44683594 23.92589844 140.45617187 23.91429687 141.49609375 23.90234375 C144 24 144 24 145 25 C145.07226502 26.85287502 145.0838122 28.70833878 145.0625 30.5625 C145.05347656 31.57441406 145.04445313 32.58632813 145.03515625 33.62890625 C145.01775391 34.80259766 145.01775391 34.80259766 145 36 C145.78246094 35.98839844 146.56492187 35.97679687 147.37109375 35.96484375 C148.38300781 35.95582031 149.39492188 35.94679688 150.4375 35.9375 C151.44683594 35.92589844 152.45617187 35.91429687 153.49609375 35.90234375 C156 36 156 36 157 37 C157.08851529 39.59359322 157.11525945 42.16039691 157.09765625 44.75390625 C157.09553383 45.91707619 157.09553383 45.91707619 157.09336853 47.10374451 C157.08775345 49.59003494 157.07519846 52.0762366 157.0625 54.5625 C157.05748694 56.24413933 157.0529237 57.92578006 157.04882812 59.60742188 C157.03777913 63.73831566 157.02050445 67.86914276 157 72 C160.63 72 164.26 72 168 72 C168 75.96 168 79.92 168 84 C171.96 84 175.92 84 180 84 C180 84.66 180 85.32 180 86 C176.37 86 172.74 86 169 86 C168.67 101.51 168.34 117.02 168 133 C164.04 133 160.08 133 156 133 C156 145.21 156 157.42 156 170 C152.04 170 148.08 170 144 170 C144 173.96 144 177.92 144 182 C131.79 182 119.58 182 107 182 C107 170 107 170 108 169 C116.02394476 168.53681813 124.01743255 169.23975548 132 170 C132 166.04 132 162.08 132 158 C128.04 158 124.08 158 120 158 C120 153.71 120 149.42 120 145 C123.96 145 127.92 145 132 145 C132 129.16 132 113.32 132 97 C135.96 97 139.92 97 144 97 C144 93.04 144 89.08 144 85 C140.04 85 136.08 85 132 85 C132 81.04 132 77.08 132 73 C128.04 73 124.08 73 120 73 C120 84.88 120 96.76 120 109 C114.06 109.495 114.06 109.495 108 110 C107.67 117.59 107.34 125.18 107 133 C82.42857143 134.14285714 82.42857143 134.14285714 72 134 C72 137.63 72 141.26 72 145 C75.96 145 79.92 145 84 145 C84 157.21 84 169.42 84 182 C75.75 182 67.5 182 59 182 C59 153.95 59 125.9 59 97 C55.04 97 51.08 97 47 97 C47 93.04 47 89.08 47 85 C35.12 85 23.24 85 11 85 C11 81.04 11 77.08 11 73 C3.08 73 -4.84 73 -13 73 C-13 69.04 -13 65.08 -13 61 C-20.92 61 -28.84 61 -37 61 C-37 53.08 -37 45.16 -37 37 C-33.04 37 -29.08 37 -25 37 C-25 28.75 -25 20.5 -25 12 C-17.08 12 -9.16 12 -1 12 C-1 8.7 -1 5.4 -1 2 C-0.67 1.34 -0.34 0.68 0 0 Z " fill="#C6A987" transform="translate(166,243)"/>
<path d="M0 0 C3.96 0 7.92 0 12 0 C12 3.96 12 7.92 12 12 C15.96 12 19.92 12 24 12 C24 15.96 24 19.92 24 24 C20.04 24 16.08 24 12 24 C12 39.84 12 55.68 12 72 C8.04 72 4.08 72 0 72 C0 76.29 0 80.58 0 85 C3.96 85 7.92 85 12 85 C12 88.96 12 92.92 12 97 C4.08 97 -3.84 97 -12 97 C-12.495 102.94 -12.495 102.94 -13 109 C-0.79 109 11.42 109 24 109 C24 105.04 24 101.08 24 97 C27.96 97 31.92 97 36 97 C36 84.79 36 72.58 36 60 C39.96 60 43.92 60 48 60 C47.99476318 58.96705811 47.98952637 57.93411621 47.98413086 56.86987305 C47.96584479 52.98772062 47.95448291 49.1055719 47.94506836 45.22338867 C47.94008154 43.55248369 47.93328969 41.88158298 47.92456055 40.21069336 C47.87805727 31.07143204 47.95844822 22.09512541 49 13 C52.63 13 56.26 13 60 13 C60.33 16.3 60.66 19.6 61 23 C64.63 23.33 68.26 23.66 72 24 C72 35.88 72 47.76 72 60 C88.17 60 104.34 60 121 60 C121 63.96 121 67.92 121 72 C124.96 72 128.92 72 133 72 C133 84.21 133 96.42 133 109 C129.04 109 125.08 109 121 109 C121 112.96 121 116.92 121 121 C117.04 121 113.08 121 109 121 C109 124.96 109 128.92 109 133 C96.46 133 83.92 133 71 133 C71 129.04 71 125.08 71 121 C7.64 121 -55.72 121 -121 121 C-121 117.04 -121 113.08 -121 109 C-124.96 109 -128.92 109 -133 109 C-133 89.2 -133 69.4 -133 49 C-129.04 49 -125.08 49 -121 49 C-121 52.63 -121 56.26 -121 60 C-117.04 60 -113.08 60 -109 60 C-109 76.17 -109 92.34 -109 109 C-100.75 109 -92.5 109 -84 109 C-84 105.04 -84 101.08 -84 97 C-80.37 97 -76.74 97 -73 97 C-73 72.91 -73 48.82 -73 24 C-69.04 24 -65.08 24 -61 24 C-61 52.05 -61 80.1 -61 109 C-52.75 109 -44.5 109 -36 109 C-36 96.79 -36 84.58 -36 72 C-39.96 72 -43.92 72 -48 72 C-48 68.37 -48 64.74 -48 61 C-36.34076987 59.72227615 -24.71506451 59.9032182 -13 60 C-13.00523682 59.30849854 -13.01047363 58.61699707 -13.01586914 57.90454102 C-13.036575 54.79053648 -13.04963963 51.67654639 -13.0625 48.5625 C-13.07087891 47.47388672 -13.07925781 46.38527344 -13.08789062 45.26367188 C-13.09111328 44.22919922 -13.09433594 43.19472656 -13.09765625 42.12890625 C-13.10289307 41.17056885 -13.10812988 40.21223145 -13.11352539 39.22485352 C-13 37 -13 37 -12 36 C-8.04 36 -4.08 36 0 36 C0 24.12 0 12.24 0 0 Z " fill="#211D1E" transform="translate(286,316)"/>
<path d="M0 0 C11.88 0 23.76 0 36 0 C36 3.96 36 7.92 36 12 C39.96 12 43.92 12 48 12 C48.495 17.445 48.495 17.445 49 23 C51.83203125 23.22786458 54.6640625 23.45572917 57.49609375 23.68359375 C60 24 60 24 61 25 C61.14310287 28.6691577 61.04221662 32.32715441 61 36 C64.96 36 68.92 36 73 36 C73 39.96 73 43.92 73 48 C92.47 48 111.94 48 132 48 C132 44.04 132 40.08 132 36 C137.94 35.505 137.94 35.505 144 35 C144.33 31.37 144.66 27.74 145 24 C160.84 24 176.68 24 193 24 C193 52.05 193 80.1 193 109 C189.04 109 185.08 109 181 109 C181 120.88 181 132.76 181 145 C184.96 145 188.92 145 193 145 C193 148.96 193 152.92 193 157 C196.96 157 200.92 157 205 157 C205 160.96 205 164.92 205 169 C197.08 169 189.16 169 181 169 C181 165.04 181 161.08 181 157 C177.04 157 173.08 157 169 157 C169 141.16 169 125.32 169 109 C165.04 109 161.08 109 157 109 C157 105.04 157 101.08 157 97 C160.96 97 164.92 97 169 97 C169 93.04 169 89.08 169 85 C172.96 85 176.92 85 181 85 C181 69.16 181 53.32 181 37 C169.12 37 157.24 37 145 37 C145 40.96 145 44.92 145 49 C141.04 49 137.08 49 133 49 C133 52.96 133 56.92 133 61 C129.04 61 125.08 61 121 61 C121 64.96 121 68.92 121 73 C112.75 73 104.5 73 96 73 C96 69.04 96 65.08 96 61 C68.28 61 40.56 61 12 61 C12 64.96 12 68.92 12 73 C8.04 73 4.08 73 0 73 C0 76.96 0 80.92 0 85 C-3.96 85 -7.92 85 -12 85 C-12 88.96 -12 92.92 -12 97 C-4.08 97 3.84 97 12 97 C12 100.96 12 104.92 12 109 C8.04 109 4.08 109 0 109 C0 116.92 0 124.84 0 133 C-7.92 133 -15.84 133 -24 133 C-24 125.08 -24 117.16 -24 109 C-27.96 109 -31.92 109 -36 109 C-36 124.84 -36 140.68 -36 157 C-32.37 157 -28.74 157 -25 157 C-24 158 -24 158 -23.88647461 160.22485352 C-23.89171143 161.18319092 -23.89694824 162.14152832 -23.90234375 163.12890625 C-23.90556641 164.16337891 -23.90878906 165.19785156 -23.91210938 166.26367188 C-23.92467773 167.8965918 -23.92467773 167.8965918 -23.9375 169.5625 C-23.94201172 170.65498047 -23.94652344 171.74746094 -23.95117188 172.87304688 C-23.9630016 175.58205432 -23.98093769 178.2910338 -24 181 C-28.29 181 -32.58 181 -37 181 C-37 177.37 -37 173.74 -37 170 C-40.96 170 -44.92 170 -49 170 C-49 166.04 -49 162.08 -49 158 C-52.96 158 -56.92 158 -61 158 C-61 154.04 -61 150.08 -61 146 C-64.96 146 -68.92 146 -73 146 C-73 141.71 -73 137.42 -73 133 C-69.37 132.67 -65.74 132.34 -62 132 C-61.67 128.37 -61.34 124.74 -61 121 C-55.555 120.505 -55.555 120.505 -50 120 C-49.90912109 117.52693359 -49.90912109 117.52693359 -49.81640625 115.00390625 C-49.73202063 112.856761 -49.64737165 110.70962609 -49.5625 108.5625 C-49.52318359 107.47388672 -49.48386719 106.38527344 -49.44335938 105.26367188 C-49.40146484 104.22919922 -49.35957031 103.19472656 -49.31640625 102.12890625 C-49.27974854 101.17056885 -49.24309082 100.21223145 -49.20532227 99.22485352 C-49 97 -49 97 -48 96 C-44.3308423 95.85689713 -40.67284559 95.95778338 -37 96 C-37 92.04 -37 88.08 -37 84 C-31.06 83.505 -31.06 83.505 -25 83 C-25.01160156 81.67484375 -25.02320313 80.3496875 -25.03515625 78.984375 C-25.04453684 77.23958474 -25.05363676 75.49479296 -25.0625 73.75 C-25.07087891 72.87730469 -25.07925781 72.00460938 -25.08789062 71.10546875 C-25.09111328 70.26113281 -25.09433594 69.41679688 -25.09765625 68.546875 C-25.10289307 67.77182617 -25.10812988 66.99677734 -25.11352539 66.19824219 C-25 64 -25 64 -24 60 C-20.04 60 -16.08 60 -12 60 C-12 48.12 -12 36.24 -12 24 C-8.04 24 -4.08 24 0 24 C0 16.08 0 8.16 0 0 Z " fill="#6D6050" transform="translate(153,50)"/>
<path d="M0 0 C15.84 0 31.68 0 48 0 C48 4.29 48 8.58 48 13 C68.13 13 88.26 13 109 13 C109 16.96 109 20.92 109 25 C112.96 25 116.92 25 121 25 C121 32.92 121 40.84 121 49 C117.04 49 113.08 49 109 49 C109 45.04 109 41.08 109 37 C105.04 37 101.08 37 97 37 C97 40.96 97 44.92 97 49 C93.04 49 89.08 49 85 49 C85 52.96 85 56.92 85 61 C72.79 61 60.58 61 48 61 C48 64.96 48 68.92 48 73 C32.16 73 16.32 73 0 73 C0 69.04 0 65.08 0 61 C-7.92 61 -15.84 61 -24 61 C-24 57.04 -24 53.08 -24 49 C-31.92 49 -39.84 49 -48 49 C-48 41.08 -48 33.16 -48 25 C-44.04 25 -40.08 25 -36 25 C-36 21.04 -36 17.08 -36 13 C-24.12 13 -12.24 13 0 13 C0 8.71 0 4.42 0 0 Z " fill="#F9F6DC" transform="translate(177,255)"/>
<path d="M0 0 C3.63 0 7.26 0 11 0 C11 3.96 11 7.92 11 12 C15.29 12 19.58 12 24 12 C24 19.92 24 27.84 24 36 C31.92 36 39.84 36 48 36 C48 39.96 48 43.92 48 48 C87.93 48 127.86 48 169 48 C169 44.04 169 40.08 169 36 C172.96 36 176.92 36 181 36 C181 32.04 181 28.08 181 24 C192.88 24 204.76 24 217 24 C217 27.96 217 31.92 217 36 C224.92 36 232.84 36 241 36 C241 36.33 241 36.66 241 37 C233.08 37 225.16 37 217 37 C217 40.96 217 44.92 217 49 C213.37 49 209.74 49 206 49 C206.0309375 51.6915625 206.0309375 51.6915625 206.0625 54.4375 C206.0838122 56.29166122 206.07226502 58.14712498 206 60 C205 61 205 61 201.58178711 61.11352539 C200.06363012 61.11336628 198.54546771 61.10767226 197.02734375 61.09765625 C196.22970108 61.0962413 195.43205841 61.09482635 194.61024475 61.09336853 C192.05262565 61.08775316 189.49509282 61.07519812 186.9375 61.0625 C185.20768355 61.05748698 183.47786574 61.05292373 181.74804688 61.04882812 C177.49866447 61.03777875 173.24934688 61.02050386 169 61 C169 64.96 169 68.92 169 73 C172.63 73 176.26 73 180 73 C180 76.63 180 80.26 180 84 C172.08 84 164.16 84 156 84 C156 80.37 156 76.74 156 73 C152.37 73 148.74 73 145 73 C145 76.63 145 80.26 145 84 C137.08 84 129.16 84 121 84 C121 80.37 121 76.74 121 73 C124.63 73 128.26 73 132 73 C132 68.71 132 64.42 132 60 C104.61 60 77.22 60 49 60 C48.505 60.99 48.505 60.99 48 62 C48 61.34 48 60.68 48 60 C44.04 60 40.08 60 36 60 C36 56.37 36 52.74 36 49 C24.12 49 12.24 49 0 49 C0 48.67 0 48.34 0 48 C3.96 48 7.92 48 12 48 C11.67 40.41 11.34 32.82 11 25 C7.37 24.67 3.74 24.34 0 24 C0 16.08 0 8.16 0 0 Z " fill="#C1877E" transform="translate(117,183)"/>
<path d="M0 0 C7.92 0 15.84 0 24 0 C24 3.96 24 7.92 24 12 C31.92 12 39.84 12 48 12 C48 8.04 48 4.08 48 0 C51.96 0 55.92 0 60 0 C60 24.09 60 48.18 60 73 C56.37 73 52.74 73 49 73 C49 76.96 49 80.92 49 85 C40.75 85 32.5 85 24 85 C24 68.83 24 52.66 24 36 C20.04 36 16.08 36 12 36 C12 32.37 12 28.74 12 25 C4.08 25 -3.84 25 -12 25 C-12 24.67 -12 24.34 -12 24 C-8.04 24 -4.08 24 0 24 C0 16.08 0 8.16 0 0 Z " fill="#C1867B" transform="translate(153,340)"/>
<path d="M0 0 C3.63 0 7.26 0 11 0 C11.33 3.3 11.66 6.6 12 10 C17.445 10.495 17.445 10.495 23 11 C23 22.88 23 34.76 23 47 C39.17 47 55.34 47 72 47 C72 50.96 72 54.92 72 59 C75.96 59 79.92 59 84 59 C84 71.21 84 83.42 84 96 C80.04 96 76.08 96 72 96 C72 99.96 72 103.92 72 108 C68.04 108 64.08 108 60 108 C60 111.96 60 115.92 60 120 C48.12 120 36.24 120 24 120 C24 116.04 24 112.08 24 108 C31.93479144 107.16371908 39.71249123 106.87401248 47.6875 106.9375 C49.33008789 106.94426758 49.33008789 106.94426758 51.00585938 106.95117188 C53.67063309 106.96280844 56.33528517 106.97915436 59 107 C58.98839844 106.21753906 58.97679687 105.43507813 58.96484375 104.62890625 C58.95582031 103.61699219 58.94679688 102.60507812 58.9375 101.5625 C58.92589844 100.55316406 58.91429687 99.54382813 58.90234375 98.50390625 C59 96 59 96 60 95 C63.63 95 67.26 95 71 95 C71 83.45 71 71.9 71 60 C51.2 60 31.4 60 11 60 C11 63.63 11 67.26 11 71 C7.04 71 3.08 71 -1 71 C-1.06863777 54.84629228 -0.86778638 38.71177771 -0.5 22.5625 C-0.45159386 20.35482272 -0.40341586 18.14714042 -0.35546875 15.93945312 C-0.23959281 10.62624095 -0.12068673 5.31310499 0 0 Z " fill="#211D1E" transform="translate(335,329)"/>
<path d="M0 0 C3.96 0 7.92 0 12 0 C12 3.96 12 7.92 12 12 C15.96 12 19.92 12 24 12 C24 15.96 24 19.92 24 24 C20.04 24 16.08 24 12 24 C12 39.84 12 55.68 12 72 C8.04 72 4.08 72 0 72 C0 76.29 0 80.58 0 85 C3.96 85 7.92 85 12 85 C12 88.96 12 92.92 12 97 C4.08 97 -3.84 97 -12 97 C-12.495 102.94 -12.495 102.94 -13 109 C-16.96 109 -20.92 109 -25 109 C-25 105.04 -25 101.08 -25 97 C-28.63 97 -32.26 97 -36 97 C-36 88.75 -36 80.5 -36 72 C-39.96 72 -43.92 72 -48 72 C-48 68.37 -48 64.74 -48 61 C-36.34076987 59.72227615 -24.71506451 59.9032182 -13 60 C-13.00523682 59.30849854 -13.01047363 58.61699707 -13.01586914 57.90454102 C-13.036575 54.79053648 -13.04963963 51.67654639 -13.0625 48.5625 C-13.07087891 47.47388672 -13.07925781 46.38527344 -13.08789062 45.26367188 C-13.09111328 44.22919922 -13.09433594 43.19472656 -13.09765625 42.12890625 C-13.10289307 41.17056885 -13.10812988 40.21223145 -13.11352539 39.22485352 C-13 37 -13 37 -12 36 C-8.04 36 -4.08 36 0 36 C0 24.12 0 12.24 0 0 Z " fill="#4F2F33" transform="translate(286,316)"/>
<path d="M0 0 C15.84 0 31.68 0 48 0 C48 28.05 48 56.1 48 85 C44.04 85 40.08 85 36 85 C36 96.88 36 108.76 36 121 C39.96 121 43.92 121 48 121 C48 124.96 48 128.92 48 133 C51.96 133 55.92 133 60 133 C60 136.96 60 140.92 60 145 C52.08 145 44.16 145 36 145 C36 141.04 36 137.08 36 133 C32.04 133 28.08 133 24 133 C24 117.16 24 101.32 24 85 C20.04 85 16.08 85 12 85 C12 81.04 12 77.08 12 73 C15.96 73 19.92 73 24 73 C24 69.04 24 65.08 24 61 C27.96 61 31.92 61 36 61 C36 44.83 36 28.66 36 12 C24.12 12 12.24 12 0 12 C0 8.04 0 4.08 0 0 Z " fill="#241F20" transform="translate(298,74)"/>
<path d="M0 0 C19.8 0 39.6 0 60 0 C60 11.55 60 23.1 60 35 C56.37 35.33 52.74 35.66 49 36 C48.67 39.63 48.34 43.26 48 47 C30.675 47.495 30.675 47.495 13 48 C13 51.96 13 55.92 13 60 C12.34 60 11.68 60 11 60 C11 56.04 11 52.08 11 48 C-52.36 48 -115.72 48 -181 48 C-181 47.67 -181 47.34 -181 47 C-117.31 47 -53.62 47 12 47 C12 39.41 12 31.82 12 24 C4.08 24 -3.84 24 -12 24 C-12 19.71 -12 15.42 -12 11 C-8.04 11 -4.08 11 0 11 C0 7.37 0 3.74 0 0 Z " fill="#A87E77" transform="translate(346,389)"/>
<path d="M0 0 C3.96 0 7.92 0 12 0 C12 11.88 12 23.76 12 36 C8.04 36 4.08 36 0 36 C0 48.21 0 60.42 0 73 C-3.96 73 -7.92 73 -12 73 C-12 76.96 -12 80.92 -12 85 C-24.21 85 -36.42 85 -49 85 C-49 73 -49 73 -48 72 C-39.97605524 71.53681813 -31.98256745 72.23975548 -24 73 C-24 69.04 -24 65.08 -24 61 C-27.96 61 -31.92 61 -36 61 C-36 56.71 -36 52.42 -36 48 C-32.04 48 -28.08 48 -24 48 C-24 44.04 -24 40.08 -24 36 C-20.04 36 -16.08 36 -12 36 C-12 28.08 -12 20.16 -12 12 C-8.04 12 -4.08 12 0 12 C0 8.04 0 4.08 0 0 Z " fill="#F8F5DB" transform="translate(322,340)"/>
<path d="M0 0 C3.96 0 7.92 0 12 0 C12 3.96 12 7.92 12 12 C15.96 12 19.92 12 24 12 C24 19.92 24 27.84 24 36 C20.04 36 16.08 36 12 36 C12 39.96 12 43.92 12 48 C8.04 48 4.08 48 0 48 C0 51.96 0 55.92 0 60 C3.96 60 7.92 60 12 60 C12 71.88 12 83.76 12 96 C8.04 96 4.08 96 0 96 C0 88.08 0 80.16 0 72 C-3.96 72 -7.92 72 -12 72 C-12 64.08 -12 56.16 -12 48 C-15.96 48 -19.92 48 -24 48 C-24 44.04 -24 40.08 -24 36 C-20.04 36 -16.08 36 -12 36 C-12 32.04 -12 28.08 -12 24 C-8.04 24 -4.08 24 0 24 C0 16.08 0 8.16 0 0 Z " fill="#C3857D" transform="translate(310,99)"/>
<path d="M0 0 C11.88 0 23.76 0 36 0 C36 3.96 36 7.92 36 12 C39.96 12 43.92 12 48 12 C48.495 17.445 48.495 17.445 49 23 C52.63 23.33 56.26 23.66 60 24 C60 24.33 60 24.66 60 25 C56.37 25 52.74 25 49 25 C49 28.96 49 32.92 49 37 C44.71 37 40.42 37 36 37 C36 40.63 36 44.26 36 48 C28.08 48 20.16 48 12 48 C12 44.37 12 40.74 12 37 C8.04 37 4.08 37 0 37 C0 33.04 0 29.08 0 25 C-3.96 25 -7.92 25 -12 25 C-12 24.67 -12 24.34 -12 24 C-8.04 24 -4.08 24 0 24 C0 16.08 0 8.16 0 0 Z " fill="#BF877C" transform="translate(153,50)"/>
<path d="M0 0 C4.29 0 8.58 0 13 0 C13.12095933 16.03383081 12.85726871 31.98777079 12 48 C-12.06116208 49.14984709 -12.06116208 49.14984709 -23 49 C-23 52.96 -23 56.92 -23 61 C-19.37 61 -15.74 61 -12 61 C-12 64.63 -12 68.26 -12 72 C-17.445 72.495 -17.445 72.495 -23 73 C-23.33 76.63 -23.66 80.26 -24 84 C-27.63 84 -31.26 84 -35 84 C-35 72.12 -35 60.24 -35 48 C-31.37 48 -27.74 48 -24 48 C-24 40.08 -24 32.16 -24 24 C-20.04 24 -16.08 24 -12 24 C-12 20.04 -12 16.08 -12 12 C-8.04 12 -4.08 12 0 12 C0 8.04 0 4.08 0 0 Z " fill="#F7F4D8" transform="translate(261,328)"/>
<path d="M0 0 C7.92 0 15.84 0 24 0 C24 3.63 24 7.26 24 11 C27.96 11 31.92 11 36 11 C36 14.96 36 18.92 36 23 C28.08 23 20.16 23 12 23 C12 27.29 12 31.58 12 36 C7.71 36 3.42 36 -1 36 C-1 51.84 -1 67.68 -1 84 C-4.63 84 -8.26 84 -12 84 C-13 83 -13 83 -13.12025452 80.60191345 C-13.11803391 79.53824051 -13.11581329 78.47456757 -13.11352539 77.37866211 C-13.11344986 76.17749252 -13.11337433 74.97632294 -13.11329651 73.73875427 C-13.10813522 72.4314888 -13.10297394 71.12422333 -13.09765625 69.77734375 C-13.09579198 68.43355868 -13.09436812 67.08977293 -13.09336853 65.74598694 C-13.08954402 62.20317723 -13.07971432 58.6604083 -13.06866455 55.11761475 C-13.05844899 51.50484773 -13.0538706 47.89207416 -13.04882812 44.27929688 C-13.03809198 37.18617961 -13.02049572 30.09309675 -13 23 C-8.71 23 -4.42 23 0 23 C0 15.41 0 7.82 0 0 Z " fill="#2F2E2E" transform="translate(129,232)"/>
<path d="M0 0 C3.96 0 7.92 0 12 0 C12 3.96 12 7.92 12 12 C15.96 12 19.92 12 24 12 C24 15.63 24 19.26 24 23 C31.92 23 39.84 23 48 23 C48 19.37 48 15.74 48 12 C52.29 12 56.58 12 61 12 C61 8.04 61 4.08 61 0 C64.63 0 68.26 0 72 0 C72 3.96 72 7.92 72 12 C75.96 12 79.92 12 84 12 C84 15.96 84 19.92 84 24 C72.12 24 60.24 24 48 24 C48 27.63 48 31.26 48 35 C32.16 35 16.32 35 0 35 C0 23.45 0 11.9 0 0 Z " fill="#774C4E" transform="translate(141,75)"/>
<path d="M0 0 C7.92 0 15.84 0 24 0 C24 3.96 24 7.92 24 12 C27.96 12 31.92 12 36 12 C36 19.92 36 27.84 36 36 C39.96 36 43.92 36 48 36 C48 44.25 48 52.5 48 61 C44.04 61 40.08 61 36 61 C36 57.04 36 53.08 36 49 C32.04 49 28.08 49 24 49 C24 44.71 24 40.42 24 36 C20.04 36 16.08 36 12 36 C12 32.37 12 28.74 12 25 C4.08 25 -3.84 25 -12 25 C-12 24.67 -12 24.34 -12 24 C-8.04 24 -4.08 24 0 24 C0 16.08 0 8.16 0 0 Z " fill="#C5A988" transform="translate(153,340)"/>
<path d="M0 0 C3.96 0 7.92 0 12 0 C12 3.96 12 7.92 12 12 C19.92 12 27.84 12 36 12 C36 19.92 36 27.84 36 36 C20.16 36 4.32 36 -12 36 C-12 32.04 -12 28.08 -12 24 C-15.96 24 -19.92 24 -24 24 C-24 20.04 -24 16.08 -24 12 C-16.08 12 -8.16 12 0 12 C0 8.04 0 4.08 0 0 Z " fill="#C3857C" transform="translate(177,171)"/>
<path d="M0 0 C15.51 0 31.02 0 47 0 C47 27.39 47 54.78 47 83 C43.37 83 39.74 83 36 83 C36 59.24 36 35.48 36 11 C24.12 11 12.24 11 0 11 C0 7.37 0 3.74 0 0 Z " fill="#221F20" transform="translate(298,75)"/>
<path d="M0 0 C7.92 0 15.84 0 24 0 C24 3.96 24 7.92 24 12 C20.37 12 16.74 12 13 12 C13.020625 13.794375 13.04125 15.58875 13.0625 17.4375 C13.0838122 19.29166122 13.07226502 21.14712498 13 23 C12 24 12 24 8.58178711 24.11352539 C7.06363012 24.11336628 5.54546771 24.10767226 4.02734375 24.09765625 C3.22970108 24.0962413 2.43205841 24.09482635 1.61024475 24.09336853 C-0.94737435 24.08775316 -3.50490718 24.07519812 -6.0625 24.0625 C-7.79231645 24.05748698 -9.52213426 24.05292373 -11.25195312 24.04882812 C-15.50133553 24.03777875 -19.75065312 24.02050386 -24 24 C-24 27.96 -24 31.92 -24 36 C-20.37 36 -16.74 36 -13 36 C-13 39.63 -13 43.26 -13 47 C-20.59 47 -28.18 47 -36 47 C-36 35.45 -36 23.9 -36 12 C-24.12 12 -12.24 12 0 12 C0 8.04 0 4.08 0 0 Z " fill="#262020" transform="translate(310,220)"/>
<path d="M0 0 C16.17 0 32.34 0 49 0 C49 3.96 49 7.92 49 12 C52.96 12 56.92 12 61 12 C61 24.21 61 36.42 61 49 C57.04 49 53.08 49 49 49 C49 52.96 49 56.92 49 61 C45.04 61 41.08 61 37 61 C37 64.96 37 68.92 37 73 C25.12 73 13.24 73 1 73 C1 69.04 1 65.08 1 61 C8.93479144 60.16371908 16.71249123 59.87401248 24.6875 59.9375 C26.33008789 59.94426758 26.33008789 59.94426758 28.00585938 59.95117188 C30.67063309 59.96280844 33.33528517 59.97915436 36 60 C35.98839844 59.21753906 35.97679687 58.43507813 35.96484375 57.62890625 C35.95582031 56.61699219 35.94679688 55.60507812 35.9375 54.5625 C35.92589844 53.55316406 35.91429687 52.54382813 35.90234375 51.50390625 C36 49 36 49 37 48 C40.63 48 44.26 48 48 48 C48 36.45 48 24.9 48 13 C28.2 13 8.4 13 -12 13 C-12 12.67 -12 12.34 -12 12 C7.8 12 27.6 12 48 12 C48 8.37 48 4.74 48 1 C32.16 1 16.32 1 0 1 C0 0.67 0 0.34 0 0 Z " fill="#796F6A" transform="translate(358,376)"/>
<path d="M0 0 C11.88 0 23.76 0 36 0 C36 3.96 36 7.92 36 12 C48.21 12 60.42 12 73 12 C73 15.96 73 19.92 73 24 C53.2 24 33.4 24 13 24 C13 20.04 13 16.08 13 12 C8.71 12 4.42 12 0 12 C0 8.04 0 4.08 0 0 Z " fill="#261E1C" transform="translate(213,159)"/>
<path d="M0 0 C3.96 0 7.92 0 12 0 C12 3.96 12 7.92 12 12 C15.96 12 19.92 12 24 12 C24 15.96 24 19.92 24 24 C19.71 24 15.42 24 11 24 C11 31.92 11 39.84 11 48 C7.04 48 3.08 48 -1 48 C-1 55.92 -1 63.84 -1 72 C-4.63 72 -8.26 72 -12 72 C-12 60.12 -12 48.24 -12 36 C-8.04 36 -4.08 36 0 36 C0 24.12 0 12.24 0 0 Z " fill="#231E1E" transform="translate(286,316)"/>
<path d="M0 0 C0.33 0 0.66 0 1 0 C1 3.96 1 7.92 1 12 C8.92 12 16.84 12 25 12 C25 15.96 25 19.92 25 24 C21.04 24 17.08 24 13 24 C13 31.92 13 39.84 13 48 C5.08 48 -2.84 48 -11 48 C-11 36.12 -11 24.24 -11 12 C-7.37 12 -3.74 12 0 12 C0 8.04 0 4.08 0 0 Z " fill="#DB833C" transform="translate(140,135)"/>
<path d="M0 0 C3.96 0 7.92 0 12 0 C12 8.25 12 16.5 12 25 C8.04 25 4.08 25 0 25 C0 28.96 0 32.92 0 37 C-12.21 37 -24.42 37 -37 37 C-37 25 -37 25 -36 24 C-27.97605524 23.53681813 -19.98256745 24.23975548 -12 25 C-12 21.04 -12 17.08 -12 13 C-15.96 13 -19.92 13 -24 13 C-24 12.67 -24 12.34 -24 12 C-16.08 12 -8.16 12 0 12 C0 8.04 0 4.08 0 0 Z " fill="#C6A987" transform="translate(310,388)"/>
<path d="M0 0 C19.8 0 39.6 0 60 0 C60 3.96 60 7.92 60 12 C56.37 12 52.74 12 49 12 C49 15.96 49 19.92 49 24 C44.71 24 40.42 24 36 24 C36 20.04 36 16.08 36 12 C34.94498291 12.00523682 33.88996582 12.01047363 32.80297852 12.01586914 C28.9024337 12.03391901 25.0018926 12.04543195 21.10131836 12.05493164 C19.41055684 12.0599719 17.71979971 12.06680405 16.02905273 12.07543945 C13.60399293 12.08751857 11.17899056 12.09323123 8.75390625 12.09765625 C7.61327477 12.10539818 7.61327477 12.10539818 6.44960022 12.11329651 C4.6326743 12.11349238 2.81586873 12.06197277 1 12 C0.67 11.67 0.34 11.34 0 11 C0 7.37 0 3.74 0 0 Z " fill="#F6F5DA" transform="translate(346,389)"/>
<path d="M0 0 C3.96 0 7.92 0 12 0 C12 3.96 12 7.92 12 12 C19.92 12 27.84 12 36 12 C36 15.96 36 19.92 36 24 C32.04 24 28.08 24 24 24 C24 31.92 24 39.84 24 48 C20.04 48 16.08 48 12 48 C11.67 40.41 11.34 32.82 11 25 C7.37 24.67 3.74 24.34 0 24 C0 16.08 0 8.16 0 0 Z " fill="#24201E" transform="translate(129,316)"/>
<path d="M0 0 C3.96 0 7.92 0 12 0 C12 7.92 12 15.84 12 24 C15.63 24 19.26 24 23 24 C24 25 24 25 24.11352539 27.22485352 C24.10828857 28.18319092 24.10305176 29.14152832 24.09765625 30.12890625 C24.09443359 31.16337891 24.09121094 32.19785156 24.08789062 33.26367188 C24.07532227 34.8965918 24.07532227 34.8965918 24.0625 36.5625 C24.05798828 37.65498047 24.05347656 38.74746094 24.04882812 39.87304688 C24.0369984 42.58205432 24.01906231 45.2910338 24 48 C20.04 48 16.08 48 12 48 C12 44.04 12 40.08 12 36 C8.04 36 4.08 36 0 36 C0 32.04 0 28.08 0 24 C-3.96 24 -7.92 24 -12 24 C-12 20.04 -12 16.08 -12 12 C-8.04 12 -4.08 12 0 12 C0 8.04 0 4.08 0 0 Z " fill="#221C1E" transform="translate(105,183)"/>
<path d="M0 0 C19.47 0 38.94 0 59 0 C59 3.63 59 7.26 59 11 C55.37 11.33 51.74 11.66 48 12 C47.67 15.63 47.34 19.26 47 23 C43.37 23 39.74 23 36 23 C36 19.04 36 15.08 36 11 C24.12 11 12.24 11 0 11 C0 7.37 0 3.74 0 0 Z " fill="#211C1C" transform="translate(226,99)"/>
<path d="M0 0 C0.33 0 0.66 0 1 0 C1 7.92 1 15.84 1 24 C4.63 24 8.26 24 12 24 C12 20.04 12 16.08 12 12 C12.33 12 12.66 12 13 12 C13 19.92 13 27.84 13 36 C9.04 36 5.08 36 1 36 C1 39.96 1 43.92 1 48 C-2.96 48 -6.92 48 -11 48 C-11 51.96 -11 55.92 -11 60 C-7.04 60 -3.08 60 1 60 C1 63.96 1 67.92 1 72 C4.96 72 8.92 72 13 72 C13 75.96 13 79.92 13 84 C12.67 84 12.34 84 12 84 C12 80.37 12 76.74 12 73 C8.04 73 4.08 73 0 73 C0 69.04 0 65.08 0 61 C-3.96 61 -7.92 61 -12 61 C-12 57.04 -12 53.08 -12 49 C-15.96 49 -19.92 49 -24 49 C-24 44.71 -24 40.42 -24 36 C-18.555 35.505 -18.555 35.505 -13 35 C-12.67 31.37 -12.34 27.74 -12 24 C-8.37 23.67 -4.74 23.34 -1 23 C-0.67 15.41 -0.34 7.82 0 0 Z " fill="#B89894" transform="translate(104,147)"/>
<path d="M0 0 C0.33 0 0.66 0 1 0 C1.0294985 3.77081636 1.04696364 7.54160231 1.0625 11.3125 C1.07087891 12.36501953 1.07925781 13.41753906 1.08789062 14.50195312 C1.10912731 21.40387656 0.72349505 28.13534225 0 35 C-5.445 35.495 -5.445 35.495 -11 36 C-11.33 43.59 -11.66 51.18 -12 59 C-15.3 59 -18.6 59 -22 59 C-22.33 51.41 -22.66 43.82 -23 36 C-26.96 35.67 -30.92 35.34 -35 35 C-35 31.37 -35 27.74 -35 24 C-23.31803313 22.71978445 -11.74817293 22.93169667 0 23 C0 15.41 0 7.82 0 0 Z " fill="#61313D" transform="translate(273,353)"/>
<path d="M0 0 C0.33 0 0.66 0 1 0 C1 15.84 1 31.68 1 48 C-2.96 48 -6.92 48 -11 48 C-11 52.29 -11 56.58 -11 61 C-7.04 61 -3.08 61 1 61 C1 64.96 1 68.92 1 73 C-7.08745302 73.0962792 -14.94837764 72.76682118 -23 72 C-23 68.04 -23 64.08 -23 60 C-19.37 60 -15.74 60 -12 60 C-12 48.12 -12 36.24 -12 24 C-8.04 24 -4.08 24 0 24 C0 16.08 0 8.16 0 0 Z " fill="#563D39" transform="translate(297,340)"/>
<path d="M0 0 C4.29 0 8.58 0 13 0 C13 3.96 13 7.92 13 12 C9.04 12 5.08 12 1 12 C1 19.92 1 27.84 1 36 C8.92 36 16.84 36 25 36 C25 43.92 25 51.84 25 60 C21.04 60 17.08 60 13 60 C13 56.04 13 52.08 13 48 C9.04 48 5.08 48 1 48 C0.67 48.99 0.34 49.98 0 51 C0 34.17 0 17.34 0 0 Z " fill="#C0A483" transform="translate(128,268)"/>
<path d="M0 0 C3.96 0 7.92 0 12 0 C12 3.96 12 7.92 12 12 C15.96 12 19.92 12 24 12 C24 20.25 24 28.5 24 37 C20.04 37 16.08 37 12 37 C12 33.04 12 29.08 12 25 C8.04 25 4.08 25 0 25 C0 16.75 0 8.5 0 0 Z " fill="#F7F3D9" transform="translate(177,364)"/>
<path d="M0 0 C11.88 0 23.76 0 36 0 C36 3.96 36 7.92 36 12 C28.08 12 20.16 12 12 12 C12 15.96 12 19.92 12 24 C8.04 24 4.08 24 0 24 C0 16.08 0 8.16 0 0 Z " fill="#232121" transform="translate(153,50)"/>
<path d="M0 0 C15.84 0 31.68 0 48 0 C48 28.05 48 56.1 48 85 C36.12 85 24.24 85 12 85 C12 81.04 12 77.08 12 73 C15.96 73 19.92 73 24 73 C24 69.04 24 65.08 24 61 C27.96 61 31.92 61 36 61 C36 68.59 36 76.18 36 84 C39.63 84 43.26 84 47 84 C47 56.61 47 29.22 47 1 C31.49 1 15.98 1 0 1 C0 0.67 0 0.34 0 0 Z " fill="#50383E" transform="translate(298,74)"/>
<path d="M0 0 C3.63 0 7.26 0 11 0 C11 7.59 11 15.18 11 23 C7.37 23.33 3.74 23.66 0 24 C-0.33 27.63 -0.66 31.26 -1 35 C-4.96 35 -8.92 35 -13 35 C-13 27.41 -13 19.82 -13 12 C-8.71 12 -4.42 12 0 12 C0 8.04 0 4.08 0 0 Z " fill="#C7AA87" transform="translate(395,401)"/>
<path d="M0 0 C15.84 0.33 31.68 0.66 48 1 C48 4.63 48 8.26 48 12 C32.16 12 16.32 12 0 12 C0 8.04 0 4.08 0 0 Z " fill="#C6AA86" transform="translate(334,400)"/>
<path d="M0 0 C0.33 0 0.66 0 1 0 C1 11.88 1 23.76 1 36 C4.63 36 8.26 36 12 36 C11.979375 34.205625 11.95875 32.41125 11.9375 30.5625 C11.9161878 28.70833878 11.92773498 26.85287502 12 25 C13 24 13 24 15.50390625 23.90234375 C18.3359375 23.93489583 21.16796875 23.96744792 24 24 C24 20.37 24 16.74 24 13 C20.37 13 16.74 13 13 13 C13 12.67 13 12.34 13 12 C16.96 12 20.92 12 25 12 C25 24.21 25 36.42 25 49 C16.75 49 8.5 49 0 49 C0 32.83 0 16.66 0 0 Z " fill="#CAB194" transform="translate(225,376)"/>
<path d="M0 0 C3.63 0 7.26 0 11 0 C11.33 3.96 11.66 7.92 12 12 C15.63 12.33 19.26 12.66 23 13 C23 16.63 23 20.26 23 24 C19.37 24.33 15.74 24.66 12 25 C11.67 28.63 11.34 32.26 11 36 C7.37 36 3.74 36 0 36 C0 24.12 0 12.24 0 0 Z " fill="#F9F7DD" transform="translate(226,376)"/>
<path d="M0 0 C3.63 0 7.26 0 11 0 C11 3.96 11 7.92 11 12 C14.96 12 18.92 12 23 12 C23 15.63 23 19.26 23 23 C11.12 23 -0.76 23 -13 23 C-13 19.37 -13 15.74 -13 12 C-8.71 12 -4.42 12 0 12 C0 8.04 0 4.08 0 0 Z " fill="#211C1D" transform="translate(202,75)"/>
<path d="M0 0 C3.96 0 7.92 0 12 0 C12.18451025 25.33940774 12.18451025 25.33940774 11 36 C7.37 36 3.74 36 0 36 C0 32.04 0 28.08 0 24 C-3.96 24 -7.92 24 -12 24 C-12 27.96 -12 31.92 -12 36 C-15.96 36 -19.92 36 -24 36 C-24 35.67 -24 35.34 -24 35 C-20.37 35 -16.74 35 -13 35 C-13 31.04 -13 27.08 -13 23 C-9.04 22.67 -5.08 22.34 -1 22 C-1.01160156 20.66324219 -1.02320312 19.32648438 -1.03515625 17.94921875 C-1.04453542 16.19531389 -1.05363549 14.44140753 -1.0625 12.6875 C-1.07087891 11.80642578 -1.07925781 10.92535156 -1.08789062 10.01757812 C-1.09272461 8.74624023 -1.09272461 8.74624023 -1.09765625 7.44921875 C-1.10551147 6.27879028 -1.10551147 6.27879028 -1.11352539 5.0847168 C-1 3 -1 3 0 0 Z " fill="#272421" transform="translate(129,111)"/>
<path d="M0 0 C7.92 0 15.84 0 24 0 C24.33 3.63 24.66 7.26 25 11 C30.445 11.495 30.445 11.495 36 12 C36 12.33 36 12.66 36 13 C32.37 13 28.74 13 25 13 C25 16.96 25 20.92 25 25 C20.71 25 16.42 25 12 25 C12 20.71 12 16.42 12 12 C8.04 12 4.08 12 0 12 C0 8.04 0 4.08 0 0 Z " fill="#B7847D" transform="translate(177,62)"/>
<path d="M0 0 C3.96 0 7.92 0 12 0 C12 11.55 12 23.1 12 35 C15.96 35 19.92 35 24 35 C24 31.04 24 27.08 24 23 C27.96 23 31.92 23 36 23 C36 23.33 36 23.66 36 24 C32.37 24 28.74 24 25 24 C25 27.96 25 31.92 25 36 C16.75 36 8.5 36 0 36 C0 24.12 0 12.24 0 0 Z " fill="#BC837B" transform="translate(177,389)"/>
<path d="M0 0 C0.33 0 0.66 0 1 0 C1 3.63 1 7.26 1 11 C4.96 11 8.92 11 13 11 C13 14.96 13 18.92 13 23 C5.08 23 -2.84 23 -11 23 C-11 27.29 -11 31.58 -11 36 C-14.96 36 -18.92 36 -23 36 C-23.09765625 26.72265625 -23.09765625 26.72265625 -23 24 C-22 23 -22 23 -19.71484375 22.90234375 C-17.14322917 22.93489583 -14.57161458 22.96744792 -12 23 C-12 19.04 -12 15.08 -12 11 C-8.04 11 -4.08 11 0 11 C0 7.37 0 3.74 0 0 Z " fill="#5E3238" transform="translate(152,232)"/>
<path d="M0 0 C4.29 0 8.58 0 13 0 C12.67 7.92 12.34 15.84 12 24 C-12.57142857 25.14285714 -12.57142857 25.14285714 -23 25 C-23 28.63 -23 32.26 -23 36 C-23.33 36 -23.66 36 -24 36 C-24 32.04 -24 28.08 -24 24 C-20.04 24 -16.08 24 -12 24 C-12 20.04 -12 16.08 -12 12 C-8.04 12 -4.08 12 0 12 C0 8.04 0 4.08 0 0 Z " fill="#CBAD8A" transform="translate(261,352)"/>
<path d="M0 0 C3.96 0 7.92 0 12 0 C12 12.21 12 24.42 12 37 C8.04 37 4.08 37 0 37 C0 24.79 0 12.58 0 0 Z " fill="#602F3C" transform="translate(165,376)"/>
<path d="M0 0 C0.33 0 0.66 0 1 0 C1 3.96 1 7.92 1 12 C8.59 12 16.18 12 24 12 C24 15.96 24 19.92 24 24 C20.04 24 16.08 24 12 24 C12 27.96 12 31.92 12 36 C8.04 36 4.08 36 0 36 C0 24.12 0 12.24 0 0 Z " fill="#DD823D" transform="translate(225,171)"/>
<path d="M0 0 C0.33 0 0.66 0 1 0 C1 8.25 1 16.5 1 25 C4.63 25 8.26 25 12 25 C12 28.63 12 32.26 12 36 C8.04 36 4.08 36 0 36 C0 39.96 0 43.92 0 48 C-3.96 48 -7.92 48 -12 48 C-12 40.41 -12 32.82 -12 25 C-8.04 25 -4.08 25 0 25 C0 16.75 0 8.5 0 0 Z " fill="#C9AA87" transform="translate(201,376)"/>
<path d="M0 0 C7.92 0 15.84 0 24 0 C24 3.96 24 7.92 24 12 C20.04 12 16.08 12 12 12 C12 15.96 12 19.92 12 24 C8.04 24 4.08 24 0 24 C0 16.08 0 8.16 0 0 Z " fill="#C8AD8A" transform="translate(165,352)"/>
<path d="M0 0 C3.96 0 7.92 0 12 0 C12 11.88 12 23.76 12 36 C8.04 36 4.08 36 0 36 C0 24.12 0 12.24 0 0 Z " fill="#C7AB87" transform="translate(310,159)"/>
<path d="M0 0 C3.96 0 7.92 0 12 0 C12.02465098 4.96622349 12.04283649 9.93241166 12.05493164 14.89868164 C12.0599719 16.58944316 12.06680405 18.28020029 12.07543945 19.97094727 C12.08751857 22.39600707 12.09323123 24.82100944 12.09765625 27.24609375 C12.10281754 28.00651474 12.10797882 28.76693573 12.11329651 29.55039978 C12.11349238 31.3673257 12.06197277 33.18413127 12 35 C11.505 35.495 11.505 35.495 11 36 C7.37 36 3.74 36 0 36 C0 24.12 0 12.24 0 0 Z " fill="#B46963" transform="translate(310,99)"/>
<path d="M0 0 C4.29 0 8.58 0 13 0 C13 7.59 13 15.18 13 23 C5.08 23 -2.84 23 -11 23 C-11 19.37 -11 15.74 -11 12 C-7.37 12 -3.74 12 0 12 C0 8.04 0 4.08 0 0 Z " fill="#B16760" transform="translate(249,244)"/>
<path d="M0 0 C3.96 0 7.92 0 12 0 C12 11.55 12 23.1 12 35 C8.04 35 4.08 35 0 35 C0 23.45 0 11.9 0 0 Z " fill="#221E1E" transform="translate(141,75)"/>
<path d="M0 0 C3.63 0 7.26 0 11 0 C11 11.88 11 23.76 11 36 C7.37 36 3.74 36 0 36 C0 24.12 0 12.24 0 0 Z " fill="#201B1A" transform="translate(310,280)"/>
<path d="M0 0 C7.59 0 15.18 0 23 0 C23 3.63 23 7.26 23 11 C19.04 11 15.08 11 11 11 C11 14.96 11 18.92 11 23 C7.37 23.33 3.74 23.66 0 24 C0 16.08 0 8.16 0 0 Z " fill="#211D1E" transform="translate(129,232)"/>
<path d="M0 0 C11.55 0 23.1 0 35 0 C35 3.63 35 7.26 35 11 C23.45 11 11.9 11 0 11 C0 7.37 0 3.74 0 0 Z " fill="#1F1C1A" transform="translate(359,437)"/>
<path d="M0 0 C3.63 0 7.26 0 11 0 C11 11.55 11 23.1 11 35 C7.37 35 3.74 35 0 35 C0 23.45 0 11.9 0 0 Z " fill="#1F1C1C" transform="translate(407,389)"/>
<path d="M0 0 C0.33 0 0.66 0 1 0 C1.10483645 20.02698688 1.17285262 39.99867411 0 60 C-3.96 60 -7.92 60 -12 60 C-12 52.08 -12 44.16 -12 36 C-8.04 36 -4.08 36 0 36 C0 24.12 0 12.24 0 0 Z " fill="#5F353D" transform="translate(334,340)"/>
<path d="M0 0 C0.33 0 0.66 0 1 0 C1 3.63 1 7.26 1 11 C4.96 11 8.92 11 13 11 C13 14.96 13 18.92 13 23 C32.47 23 51.94 23 72 23 C72 19.04 72 15.08 72 11 C82.69007345 9.94118862 93.09431578 10.06275325 103.8125 10.4375 C105.48760987 10.49087638 107.1627402 10.54361491 108.83789062 10.59570312 C112.89219986 10.723134 116.94613632 10.85913215 121 11 C121 11.33 121 11.66 121 12 C109.12 12 97.24 12 85 12 C85 15.96 85 19.92 85 24 C81.04 24 77.08 24 73 24 C73 27.96 73 31.92 73 36 C69.04 36 65.08 36 61 36 C61 35.67 61 35.34 61 35 C64.63 35 68.26 35 72 35 C72 31.37 72 27.74 72 24 C52.2 24 32.4 24 12 24 C12 20.04 12 16.08 12 12 C8.04 12 4.08 12 0 12 C0 8.04 0 4.08 0 0 Z " fill="#A5A4A0" transform="translate(213,75)"/>
<path d="M0 0 C0.33 0 0.66 0 1 0 C1 7.92 1 15.84 1 24 C4.63 24 8.26 24 12 24 C13 25 13 25 13.11352539 27.22485352 C13.10828857 28.18319092 13.10305176 29.14152832 13.09765625 30.12890625 C13.09443359 31.16337891 13.09121094 32.19785156 13.08789062 33.26367188 C13.07951172 34.35228516 13.07113281 35.44089844 13.0625 36.5625 C13.05798828 37.65498047 13.05347656 38.74746094 13.04882812 39.87304688 C13.0369984 42.58205432 13.01906231 45.2910338 13 48 C9.04 48 5.08 48 1 48 C-0.05611809 37.72155939 -0.11668147 27.56696996 -0.0625 17.25 C-0.05747197 15.57031384 -0.05291138 13.89062622 -0.04882812 12.2109375 C-0.03793264 8.14058804 -0.02074084 4.07031071 0 0 Z " fill="#704646" transform="translate(116,183)"/>
<path d="M0 0 C12.21 0 24.42 0 37 0 C37 0.33 37 0.66 37 1 C25.12 1 13.24 1 1 1 C1 4.96 1 8.92 1 13 C4.63 13 8.26 13 12 13 C12 16.63 12 20.26 12 24 C4.41 24 -3.18 24 -11 24 C-11 20.04 -11 16.08 -11 12 C-7.37 12 -3.74 12 0 12 C0 8.04 0 4.08 0 0 Z " fill="#A8736E" transform="translate(285,243)"/>
<path d="M0 0 C3.96 0 7.92 0 12 0 C12 3.96 12 7.92 12 12 C15.96 12 19.92 12 24 12 C24 16.29 24 20.58 24 25 C20.04 25 16.08 25 12 25 C12 21.04 12 17.08 12 13 C8.04 13 4.08 13 0 13 C0 8.71 0 4.42 0 0 Z " fill="#F3F0DA" transform="translate(165,62)"/>
<path d="M0 0 C11.88 0 23.76 0 36 0 C36 3.96 36 7.92 36 12 C27.75 12 19.5 12 11 12 C11 8.37 11 4.74 11 1 C7.37 1 3.74 1 0 1 C0 0.67 0 0.34 0 0 Z " fill="#6E4647" transform="translate(250,171)"/>
<path d="M0 0 C0.33 0 0.66 0 1 0 C1 7.92 1 15.84 1 24 C-3.29 24 -7.58 24 -12 24 C-12 27.63 -12 31.26 -12 35 C-19.92821594 35.93886768 -27.05839619 35.8408757 -35 35 C-35 31.37 -35 27.74 -35 24 C-23.31803313 22.71978445 -11.74817293 22.93169667 0 23 C0 15.41 0 7.82 0 0 Z " fill="#7D5352" transform="translate(273,353)"/>
<path d="M0 0 C0.33 0 0.66 0 1 0 C1 4.29 1 8.58 1 13 C4.96 13 8.92 13 13 13 C13 16.96 13 20.92 13 25 C4.91254698 25.0962792 -2.94837764 24.76682118 -11 24 C-11 20.04 -11 16.08 -11 12 C-7.37 12 -3.74 12 0 12 C0 8.04 0 4.08 0 0 Z " fill="#AE6860" transform="translate(285,388)"/>
<path d="M0 0 C8.25 0 16.5 0 25 0 C25 3.96 25 7.92 25 12 C16.75 12 8.5 12 0 12 C0 8.04 0 4.08 0 0 Z " fill="#C8AF8B" transform="translate(225,280)"/>
<path d="M0 0 C7.92 0 15.84 0 24 0 C24 3.96 24 7.92 24 12 C16.08 12 8.16 12 0 12 C0 8.04 0 4.08 0 0 Z " fill="#734648" transform="translate(177,340)"/>
<path d="M0 0 C7.92 0 15.84 0 24 0 C24 3.96 24 7.92 24 12 C16.08 12 8.16 12 0 12 C0 8.04 0 4.08 0 0 Z " fill="#221B1D" transform="translate(165,195)"/>
<path d="M0 0 C7.92 0 15.84 0 24 0 C24 3.96 24 7.92 24 12 C16.08 12 8.16 12 0 12 C0 8.04 0 4.08 0 0 Z " fill="#BF857C" transform="translate(153,183)"/>
<path d="M0 0 C3.96 0 7.92 0 12 0 C12 7.92 12 15.84 12 24 C8.04 24 4.08 24 0 24 C0 16.08 0 8.16 0 0 Z " fill="#F8F3DB" transform="translate(177,171)"/>
<path d="M0 0 C7.92 0 15.84 0 24 0 C24 3.96 24 7.92 24 12 C16.08 12 8.16 12 0 12 C0 8.04 0 4.08 0 0 Z " fill="#28221F" transform="translate(141,147)"/>
<path d="M0 0 C3.96 0 7.92 0 12 0 C12 7.92 12 15.84 12 24 C8.04 24 4.08 24 0 24 C0 16.08 0 8.16 0 0 Z " fill="#C0847D" transform="translate(322,111)"/>
<path d="M0 0 C7.92 0 15.84 0 24 0 C24 3.63 24 7.26 24 11 C23 12 23 12 20.77514648 12.11352539 C19.81680908 12.10828857 18.85847168 12.10305176 17.87109375 12.09765625 C16.31938477 12.09282227 16.31938477 12.09282227 14.73632812 12.08789062 C13.64771484 12.07951172 12.55910156 12.07113281 11.4375 12.0625 C9.7987793 12.05573242 9.7987793 12.05573242 8.12695312 12.04882812 C5.41794568 12.0369984 2.7089662 12.01906231 0 12 C0 8.04 0 4.08 0 0 Z " fill="#5E2F39" transform="translate(334,413)"/>
<path d="M0 0 C7.92 0 15.84 0 24 0 C24 3.63 24 7.26 24 11 C16.08 11 8.16 11 0 11 C0 7.37 0 3.74 0 0 Z " fill="#CBA988" transform="translate(189,99)"/>
<path d="M0 0 C7.92 0 15.84 0 24 0 C24 3.63 24 7.26 24 11 C16.08 11 8.16 11 0 11 C0 7.37 0 3.74 0 0 Z " fill="#211C1A" transform="translate(165,99)"/>
<path d="M0 0 C3.63 0 7.26 0 11 0 C11 7.59 11 15.18 11 23 C7.37 23 3.74 23 0 23 C0 15.41 0 7.82 0 0 Z " fill="#221D1D" transform="translate(262,389)"/>
<path d="M0 0 C3.96 0 7.92 0 12 0 C12 0.33 12 0.66 12 1 C8.37 1 4.74 1 1 1 C1 28.72 1 56.44 1 85 C-2.96 85 -6.92 85 -11 85 C-11 81.04 -11 77.08 -11 73 C-7.37 73 -3.74 73 0 73 C0 48.91 0 24.82 0 0 Z " fill="#573C33" transform="translate(213,340)"/>
<path d="M0 0 C0.33 0 0.66 0 1 0 C1 3.63 1 7.26 1 11 C12.88 11 24.76 11 37 11 C37 14.96 37 18.92 37 23 C40.63 23 44.26 23 48 23 C48 19.37 48 15.74 48 12 C48.33 12 48.66 12 49 12 C49 15.96 49 19.92 49 24 C40.75 24 32.5 24 24 24 C24 20.04 24 16.08 24 12 C16.08 12 8.16 12 0 12 C0 8.04 0 4.08 0 0 Z " fill="#AC847C" transform="translate(225,99)"/>
<path d="M0 0 C1.97956441 0.14033111 3.95865141 0.2874123 5.9375 0.4375 C7.03964844 0.51871094 8.14179688 0.59992188 9.27734375 0.68359375 C12 1 12 1 13 2 C13.14310287 5.6691577 13.04221662 9.32715441 13 13 C16.63 13 20.26 13 24 13 C24 13.33 24 13.66 24 14 C20.04 14 16.08 14 12 14 C12 17.96 12 21.92 12 26 C8.04 26 4.08 26 0 26 C0 21.71 0 17.42 0 13 C3.63 13 7.26 13 11 13 C11 9.37 11 5.74 11 2 C7.37 2 3.74 2 0 2 C0 1.34 0 0.68 0 0 Z " fill="#C8AD8A" transform="translate(286,254)"/>
<path d="M0 0 C0.33 0 0.66 0 1 0 C1 3.63 1 7.26 1 11 C12.88 11 24.76 11 37 11 C37 7.37 37 3.74 37 0 C40.63 0 44.26 0 48 0 C48 3.63 48 7.26 48 11 C52.29 11 56.58 11 61 11 C61 11.33 61 11.66 61 12 C40.87 12 20.74 12 0 12 C0 8.04 0 4.08 0 0 Z " fill="#CFAE90" transform="translate(225,256)"/>
<path d="M0 0 C0.33 0 0.66 0 1 0 C1 7.92 1 15.84 1 24 C-7.25 24 -15.5 24 -24 24 C-24 20.04 -24 16.08 -24 12 C-23.67 12 -23.34 12 -23 12 C-23 15.63 -23 19.26 -23 23 C-19.37 23 -15.74 23 -12 23 C-12 19.37 -12 15.74 -12 12 C-8.04 12 -4.08 12 0 12 C0 8.04 0 4.08 0 0 Z " fill="#A96B60" transform="translate(249,401)"/>
<path d="M0 0 C0 0.33 0 0.66 0 1 C-3.63 1 -7.26 1 -11 1 C-11 4.96 -11 8.92 -11 13 C-15.29 13 -19.58 13 -24 13 C-24 8.71 -24 4.42 -24 0 C-15.78615315 -0.88005502 -8.20397353 -0.9454934 0 0 Z " fill="#C9AC8B" transform="translate(213,74)"/>
<path d="M0 0 C0.33 0 0.66 0 1 0 C1 3.96 1 7.92 1 12 C4.63 12 8.26 12 12 12 C12 15.96 12 19.92 12 24 C8.37 24 4.74 24 1 24 C1 27.96 1 31.92 1 36 C0.34 36 -0.32 36 -1 36 C-0.67 24.12 -0.34 12.24 0 0 Z " fill="#C0A58C" transform="translate(358,413)"/>
<path d="M0 0 C11.88 0 23.76 0 36 0 C36 3.96 36 7.92 36 12 C32.04 12 28.08 12 24 12 C24 8.37 24 4.74 24 1 C16.41 1 8.82 1 1 1 C1 4.63 1 8.26 1 12 C0.67 12 0.34 12 0 12 C0 8.04 0 4.08 0 0 Z " fill="#754449" transform="translate(213,159)"/>
<path d="M0 0 C0.33 0 0.66 0 1 0 C1 7.92 1 15.84 1 24 C4.63 24 8.26 24 12 24 C12 27.96 12 31.92 12 36 C8.04 36 4.08 36 0 36 C0 24.12 0 12.24 0 0 Z " fill="#C5A985" transform="translate(225,171)"/>
<path d="M0 0 C3.96 0 7.92 0 12 0 C12 3.96 12 7.92 12 12 C0.12 12 -11.76 12 -24 12 C-24 11.67 -24 11.34 -24 11 C-16.08 11 -8.16 11 0 11 C0 7.37 0 3.74 0 0 Z " fill="#CBB191" transform="translate(213,99)"/>
<path d="M0 0 C0.33 0 0.66 0 1 0 C1 7.92 1 15.84 1 24 C-3.29 24 -7.58 24 -12 24 C-11.67 20.04 -11.34 16.08 -11 12 C-7.37 12 -3.74 12 0 12 C0 8.04 0 4.08 0 0 Z " fill="#C8AC88" transform="translate(152,159)"/>
<path d="M0 0 C3.96 0 7.92 0 12 0 C12 4.29 12 8.58 12 13 C8.04 13 4.08 13 0 13 C0 8.71 0 4.42 0 0 Z " fill="#734849" transform="translate(165,376)"/>
<path d="M0 0 C0.33 0 0.66 0 1 0 C1 7.92 1 15.84 1 24 C-2.96 24 -6.92 24 -11 24 C-11 20.04 -11 16.08 -11 12 C-7.37 12 -3.74 12 0 12 C0 8.04 0 4.08 0 0 Z " fill="#C7A883" transform="translate(116,159)"/>
<path d="M0 0 C7.92 0 15.84 0 24 0 C24 3.96 24 7.92 24 12 C20.04 12 16.08 12 12 12 C12 8.37 12 4.74 12 1 C8.04 1 4.08 1 0 1 C0 0.67 0 0.34 0 0 Z " fill="#BCA281" transform="translate(141,74)"/>
<path d="M0 0 C3.96 0 7.92 0 12 0 C12 3.96 12 7.92 12 12 C4.08 12 -3.84 12 -12 12 C-12 11.67 -12 11.34 -12 11 C-8.04 11 -4.08 11 0 11 C0 7.37 0 3.74 0 0 Z " fill="#BE877A" transform="translate(165,75)"/>
<path d="M0 0 C16.17 0 32.34 0 49 0 C49 3.96 49 7.92 49 12 C52.96 12 56.92 12 61 12 C61 12.33 61 12.66 61 13 C57.04 13 53.08 13 49 13 C49 16.96 49 20.92 49 25 C48.67 25 48.34 25 48 25 C48 21.04 48 17.08 48 13 C28.2 13 8.4 13 -12 13 C-12 12.67 -12 12.34 -12 12 C7.8 12 27.6 12 48 12 C48 8.37 48 4.74 48 1 C32.16 1 16.32 1 0 1 C0 0.67 0 0.34 0 0 Z " fill="#969590" transform="translate(358,376)"/>
<path d="M0 0 C3.96 0 7.92 0 12 0 C12 3.96 12 7.92 12 12 C8.04 12 4.08 12 0 12 C0 8.04 0 4.08 0 0 Z " fill="#F7EFD5" transform="translate(274,412)"/>
<path d="M0 0 C3.96 0 7.92 0 12 0 C12 3.96 12 7.92 12 12 C8.04 12 4.08 12 0 12 C0 8.04 0 4.08 0 0 Z " fill="#744846" transform="translate(286,401)"/>
<path d="M0 0 C3.96 0 7.92 0 12 0 C12 3.96 12 7.92 12 12 C8.04 12 4.08 12 0 12 C0 8.04 0 4.08 0 0 Z " fill="#C9AD8C" transform="translate(322,364)"/>
<path d="M0 0 C3.96 0 7.92 0 12 0 C12 3.96 12 7.92 12 12 C8.04 12 4.08 12 0 12 C0 8.04 0 4.08 0 0 Z " fill="#B46962" transform="translate(189,352)"/>
<path d="M0 0 C3.96 0 7.92 0 12 0 C12 3.96 12 7.92 12 12 C8.04 12 4.08 12 0 12 C0 8.04 0 4.08 0 0 Z " fill="#C5AA86" transform="translate(177,352)"/>
<path d="M0 0 C3.96 0 7.92 0 12 0 C12 3.96 12 7.92 12 12 C8.04 12 4.08 12 0 12 C0 8.04 0 4.08 0 0 Z " fill="#FAF3D6" transform="translate(165,352)"/>
<path d="M0 0 C3.96 0 7.92 0 12 0 C12 3.96 12 7.92 12 12 C8.04 12 4.08 12 0 12 C0 8.04 0 4.08 0 0 Z " fill="#281F1C" transform="translate(177,340)"/>
<path d="M0 0 C3.96 0 7.92 0 12 0 C12 3.96 12 7.92 12 12 C8.04 12 4.08 12 0 12 C0 8.04 0 4.08 0 0 Z " fill="#623635" transform="translate(298,328)"/>
<path d="M0 0 C3.96 0 7.92 0 12 0 C12 3.96 12 7.92 12 12 C8.04 12 4.08 12 0 12 C0 8.04 0 4.08 0 0 Z " fill="#744846" transform="translate(201,328)"/>
<path d="M0 0 C3.96 0 7.92 0 12 0 C12 3.96 12 7.92 12 12 C8.04 12 4.08 12 0 12 C0 8.04 0 4.08 0 0 Z " fill="#C9AA8A" transform="translate(189,328)"/>
<path d="M0 0 C3.96 0 7.92 0 12 0 C12 3.96 12 7.92 12 12 C8.04 12 4.08 12 0 12 C0 8.04 0 4.08 0 0 Z " fill="#262320" transform="translate(322,316)"/>
<path d="M0 0 C3.96 0 7.92 0 12 0 C12 3.96 12 7.92 12 12 C8.04 12 4.08 12 0 12 C0 8.04 0 4.08 0 0 Z " fill="#C7AD87" transform="translate(201,316)"/>
<path d="M0 0 C3.96 0 7.92 0 12 0 C12 3.96 12 7.92 12 12 C8.04 12 4.08 12 0 12 C0 8.04 0 4.08 0 0 Z " fill="#C9AD8A" transform="translate(189,292)"/>
<path d="M0 0 C3.96 0 7.92 0 12 0 C12 3.96 12 7.92 12 12 C8.04 12 4.08 12 0 12 C0 8.04 0 4.08 0 0 Z " fill="#2C271F" transform="translate(298,268)"/>
<path d="M0 0 C3.96 0 7.92 0 12 0 C12 3.96 12 7.92 12 12 C8.04 12 4.08 12 0 12 C0 8.04 0 4.08 0 0 Z " fill="#C6A884" transform="translate(129,268)"/>
<path d="M0 0 C3.96 0 7.92 0 12 0 C12 3.96 12 7.92 12 12 C8.04 12 4.08 12 0 12 C0 8.04 0 4.08 0 0 Z " fill="#231A1A" transform="translate(201,195)"/>
<path d="M0 0 C3.96 0 7.92 0 12 0 C12 3.96 12 7.92 12 12 C8.04 12 4.08 12 0 12 C0 8.04 0 4.08 0 0 Z " fill="#C4A985" transform="translate(153,195)"/>
<path d="M0 0 C3.96 0 7.92 0 12 0 C12 3.96 12 7.92 12 12 C8.04 12 4.08 12 0 12 C0 8.04 0 4.08 0 0 Z " fill="#2A2421" transform="translate(153,183)"/>
<path d="M0 0 C3.96 0 7.92 0 12 0 C12 3.96 12 7.92 12 12 C8.04 12 4.08 12 0 12 C0 8.04 0 4.08 0 0 Z " fill="#2A2928" transform="translate(80,183)"/>
<path d="M0 0 C3.96 0 7.92 0 12 0 C12 3.96 12 7.92 12 12 C8.04 12 4.08 12 0 12 C0 8.04 0 4.08 0 0 Z " fill="#36312B" transform="translate(177,171)"/>
<path d="M0 0 C3.96 0 7.92 0 12 0 C12 3.96 12 7.92 12 12 C8.04 12 4.08 12 0 12 C0 8.04 0 4.08 0 0 Z " fill="#734747" transform="translate(298,159)"/>
<path d="M0 0 C3.96 0 7.92 0 12 0 C12 3.96 12 7.92 12 12 C8.04 12 4.08 12 0 12 C0 8.04 0 4.08 0 0 Z " fill="#CAA886" transform="translate(298,147)"/>
<path d="M0 0 C3.96 0 7.92 0 12 0 C12 3.96 12 7.92 12 12 C8.04 12 4.08 12 0 12 C0 8.04 0 4.08 0 0 Z " fill="#724449" transform="translate(322,135)"/>
<path d="M0 0 C3.96 0 7.92 0 12 0 C12 3.96 12 7.92 12 12 C8.04 12 4.08 12 0 12 C0 8.04 0 4.08 0 0 Z " fill="#C2857D" transform="translate(310,99)"/>
<path d="M0 0 C3.96 0 7.92 0 12 0 C12 3.96 12 7.92 12 12 C8.04 12 4.08 12 0 12 C0 8.04 0 4.08 0 0 Z " fill="#754748" transform="translate(310,147)"/>
<path d="M0 0 C3.96 0 7.92 0 12 0 C12 3.63 12 7.26 12 11 C8.04 11 4.08 11 0 11 C0 7.37 0 3.74 0 0 Z " fill="#B06561" transform="translate(238,377)"/>
<path d="M0 0 C3.96 0 7.92 0 12 0 C12 3.63 12 7.26 12 11 C8.04 11 4.08 11 0 11 C0 7.37 0 3.74 0 0 Z " fill="#CBAB8A" transform="translate(189,365)"/>
<path d="M0 0 C3.63 0 7.26 0 11 0 C11 3.96 11 7.92 11 12 C7.37 12 3.74 12 0 12 C0 8.04 0 4.08 0 0 Z " fill="#251E17" transform="translate(238,328)"/>
<path d="M0 0 C3.63 0 7.26 0 11 0 C11 3.96 11 7.92 11 12 C7.37 12 3.74 12 0 12 C0 8.04 0 4.08 0 0 Z " fill="#261D1E" transform="translate(117,219)"/>
<path d="M0 0 C3.63 0 7.26 0 11 0 C11 3.96 11 7.92 11 12 C7.37 12 3.74 12 0 12 C0 8.04 0 4.08 0 0 Z " fill="#CAAA8C" transform="translate(129,147)"/>
<path d="M0 0 C3.63 0 7.26 0 11 0 C11 3.96 11 7.92 11 12 C7.37 12 3.74 12 0 12 C0 8.04 0 4.08 0 0 Z " fill="#6C4546" transform="translate(129,135)"/>
<path d="M0 0 C3.96 0 7.92 0 12 0 C12 3.63 12 7.26 12 11 C8.04 11 4.08 11 0 11 C0 7.37 0 3.74 0 0 Z " fill="#C2887A" transform="translate(201,99)"/>
<path d="M0 0 C3.96 0 7.92 0 12 0 C12 3.63 12 7.26 12 11 C8.04 11 4.08 11 0 11 C0 7.37 0 3.74 0 0 Z " fill="#C9A988" transform="translate(165,87)"/>
<path d="M0 0 C3.96 0 7.92 0 12 0 C12 3.63 12 7.26 12 11 C8.04 11 4.08 11 0 11 C0 7.37 0 3.74 0 0 Z " fill="#241C1B" transform="translate(189,63)"/>
<path d="M0 0 C3.63 0.33 7.26 0.66 11 1 C11 4.63 11 8.26 11 12 C7.37 12 3.74 12 0 12 C0 8.04 0 4.08 0 0 Z " fill="#231E1D" transform="translate(93,171)"/>
<path d="M0 0 C3.3 0 6.6 0 10 0 C9.95117188 3.85742188 9.95117188 3.85742188 9.90234375 7.71484375 C9.74050951 9.96593327 9.74050951 9.96593327 11 11 C11 7.37 11 3.74 11 0 C11.33 0 11.66 0 12 0 C12 3.96 12 7.92 12 12 C8.04 12 4.08 12 0 12 C0 8.04 0 4.08 0 0 Z " fill="#784D50" transform="translate(129,256)"/>
<path d="M0 0 C3.63 0 7.26 0 11 0 C11 3.63 11 7.26 11 11 C7.37 11 3.74 11 0 11 C0 7.37 0 3.74 0 0 Z " fill="#20191A" transform="translate(395,425)"/>
<path d="M0 0 C3.63 0 7.26 0 11 0 C11 3.63 11 7.26 11 11 C7.37 11 3.74 11 0 11 C0 7.37 0 3.74 0 0 Z " fill="#CAAB89" transform="translate(226,413)"/>
<path d="M0 0 C3.63 0 7.26 0 11 0 C11 3.63 11 7.26 11 11 C7.37 11 3.74 11 0 11 C0 7.37 0 3.74 0 0 Z " fill="#211B18" transform="translate(286,256)"/>
<path d="M0 0 C3.63 0 7.26 0 11 0 C11 3.63 11 7.26 11 11 C7.37 11 3.74 11 0 11 C0 7.37 0 3.74 0 0 Z " fill="#612C3A" transform="translate(250,244)"/>
<path d="M0 0 C3.63 0 7.26 0 11 0 C11 3.63 11 7.26 11 11 C7.37 11 3.74 11 0 11 C0 7.37 0 3.74 0 0 Z " fill="#1E1D1B" transform="translate(286,87)"/>
<path d="M0 0 C3.96 0 7.92 0 12 0 C12 3.3 12 6.6 12 10 C8.04 10 4.08 10 0 10 C0 6.7 0 3.4 0 0 Z " fill="#61303B" transform="translate(310,414)"/>
<path d="M0 0 C3.96 0 7.92 0 12 0 C12 3.3 12 6.6 12 10 C8.04 10 4.08 10 0 10 C0 6.7 0 3.4 0 0 Z " fill="#744549" transform="translate(141,244)"/>
<path d="M0 0 C3.3 0 6.6 0 10 0 C10 3.63 10 7.26 10 11 C6.7 11 3.4 11 0 11 C0 7.37 0 3.74 0 0 Z " fill="#72464A" transform="translate(262,413)"/>
<path d="M0 0 C3.3 0 6.6 0 10 0 C10 3.63 10 7.26 10 11 C6.7 11 3.4 11 0 11 C0 7.37 0 3.74 0 0 Z " fill="#744648" transform="translate(274,389)"/>
<path d="M0 0 C3.3 0 6.6 0 10 0 C10 3.63 10 7.26 10 11 C6.7 11 3.4 11 0 11 C0 7.37 0 3.74 0 0 Z " fill="#73454B" transform="translate(286,376)"/>
<path d="M0 0 C3.3 0 6.6 0 10 0 C10 3.63 10 7.26 10 11 C6.7 11 3.4 11 0 11 C0 7.37 0 3.74 0 0 Z " fill="#60303B" transform="translate(286,365)"/>
<path d="M0 0 C3.3 0 6.6 0 10 0 C10 3.3 10 6.6 10 10 C6.7 10 3.4 10 0 10 C0 6.7 0 3.4 0 0 Z " fill="#73474B" transform="translate(203,414)"/>
<path d="M0 0 C0 3.63 0 7.26 0 11 C-2.97 11 -5.94 11 -9 11 C-9.33 8.69 -9.66 6.38 -10 4 C-9.34 3.67 -8.68 3.34 -8 3 C-8 2.34 -8 1.68 -8 1 C-5.29120665 -0.35439668 -2.99066732 -0.06501451 0 0 Z " fill="#F9F7DB" transform="translate(189,75)"/>
<path d="M0 0 C0.33 0 0.66 0 1 0 C1 5.28 1 10.56 1 16 C2.98 16.66 4.96 17.32 7 18 C6.34 19.32 5.68 20.64 5 22 C4.01 22 3.02 22 2 22 C2 21.01 2 20.02 2 19 C1.34 20.32 0.68 21.64 0 23 C-3.96 23 -7.92 23 -12 23 C-12 26.96 -12 30.92 -12 35 C-15.96 35 -19.92 35 -24 35 C-24 34.67 -24 34.34 -24 34 C-20.37 34 -16.74 34 -13 34 C-13 30.04 -13 26.08 -13 22 C-9.04 21.67 -5.08 21.34 -1 21 C-1.01160156 19.65164062 -1.02320312 18.30328125 -1.03515625 16.9140625 C-1.04453401 15.15104305 -1.05363423 13.3880221 -1.0625 11.625 C-1.07087891 10.73554687 -1.07925781 9.84609375 -1.08789062 8.9296875 C-1.09111328 8.07890625 -1.09433594 7.228125 -1.09765625 6.3515625 C-1.10551147 5.17327881 -1.10551147 5.17327881 -1.11352539 3.97119141 C-1 2 -1 2 0 0 Z " fill="#808080" transform="translate(129,112)"/>
<path d="M0 0 C0.33 0 0.66 0 1 0 C1 11.88 1 23.76 1 36 C-2.96 36 -6.92 36 -11 36 C-11 39.96 -11 43.92 -11 48 C-11.33 48 -11.66 48 -12 48 C-12 44.04 -12 40.08 -12 36 C-15.63 36 -19.26 36 -23 36 C-23 35.67 -23 35.34 -23 35 C-19.37 35 -15.74 35 -12 35 C-12 27.41 -12 19.82 -12 12 C-11.67 12 -11.34 12 -11 12 C-11 19.59 -11 27.18 -11 35 C-7.37 35 -3.74 35 0 35 C0 23.45 0 11.9 0 0 Z " fill="#807974" transform="translate(418,389)"/>
<path d="M0 0 C7.92 0 15.84 0 24 0 C24 3.96 24 7.92 24 12 C20.04 12 16.08 12 12 12 C12 11.67 12 11.34 12 11 C15.3 10.34 18.6 9.68 22 9 C22.33 6.69 22.66 4.38 23 2 C16.07 2 9.14 2 2 2 C2.33 4.97 2.66 7.94 3 11 C2.01 11.33 1.02 11.66 0 12 C0 8.04 0 4.08 0 0 Z " fill="#BC9083" transform="translate(189,183)"/>
<path d="M0 0 C0.33 0 0.66 0 1 0 C1 15.84 1 31.68 1 48 C0.67 48 0.34 48 0 48 C-0.33 45.03 -0.66 42.06 -1 39 C-3.1965625 38.814375 -3.1965625 38.814375 -5.4375 38.625 C-7.93359375 38.4140625 -7.93359375 38.4140625 -10 38 C-10.33 37.34 -10.66 36.68 -11 36 C-7.37 36 -3.74 36 0 36 C0 32.37 0 28.74 0 25 C-2.31 24.67 -4.62 24.34 -7 24 C-7 23.67 -7 23.34 -7 23 C-5.02 23 -3.04 23 -1 23 C-0.67 15.41 -0.34 7.82 0 0 Z " fill="#A18C87" transform="translate(104,147)"/>
<path d="M0 0 C11.88 0 23.76 0 36 0 C36 3.63 36 7.26 36 11 C35.67 11 35.34 11 35 11 C34.505 7.04 34.505 7.04 34 3 C31.03 2.67 28.06 2.34 25 2 C25 5.3 25 8.6 25 12 C24.67 12 24.34 12 24 12 C24 8.37 24 4.74 24 1 C16.41 1 8.82 1 1 1 C1 4.63 1 8.26 1 12 C0.67 12 0.34 12 0 12 C0 8.04 0 4.08 0 0 Z " fill="#5B4940" transform="translate(213,159)"/>
<path d="M0 0 C0.33 0 0.66 0 1 0 C1 7.92 1 15.84 1 24 C0.67 24 0.34 24 0 24 C0 20.37 0 16.74 0 13 C-2.64 13.33 -5.28 13.66 -8 14 C-8.07427838 17.34252724 -8.06546953 19.8035914 -7 23 C-5.02 23 -3.04 23 -1 23 C-1 23.33 -1 23.66 -1 24 C-4.3 24 -7.6 24 -11 24 C-11 20.04 -11 16.08 -11 12 C-7.37 12 -3.74 12 0 12 C0 8.04 0 4.08 0 0 Z " fill="#BCA990" transform="translate(116,159)"/>
<path d="M0 0 C7.92 0 15.84 0 24 0 C24 0.33 24 0.66 24 1 C22.81921875 1.06058594 21.6384375 1.12117187 20.421875 1.18359375 C18.8645723 1.26802582 17.30728121 1.35267249 15.75 1.4375 C14.97269531 1.47681641 14.19539062 1.51613281 13.39453125 1.55664062 C12.26337891 1.61948242 12.26337891 1.61948242 11.109375 1.68359375 C10.07248535 1.73858032 10.07248535 1.73858032 9.01464844 1.79467773 C6.93371671 2.00675524 5.01427578 2.44508677 3 3 C2.67 5.31 2.34 7.62 2 10 C9.26 10.33 16.52 10.66 24 11 C24 11.33 24 11.66 24 12 C16.08 12 8.16 12 0 12 C0 8.04 0 4.08 0 0 Z " fill="#352821" transform="translate(165,195)"/>
<path d="M0 0 C1.97956441 0.14033111 3.95865141 0.2874123 5.9375 0.4375 C7.03964844 0.51871094 8.14179688 0.59992188 9.27734375 0.68359375 C12 1 12 1 13 2 C13.14310287 5.6691577 13.04221662 9.32715441 13 13 C16.63 13 20.26 13 24 13 C24 13.33 24 13.66 24 14 C20.04 14 16.08 14 12 14 C12 17.63 12 21.26 12 25 C11.67 25 11.34 25 11 25 C11 21.37 11 17.74 11 14 C7.37 14 3.74 14 0 14 C0 13.67 0 13.34 0 13 C3.63 13 7.26 13 11 13 C11 9.37 11 5.74 11 2 C7.37 2 3.74 2 0 2 C0 1.34 0 0.68 0 0 Z " fill="#A7A29A" transform="translate(286,254)"/>
<path d="M0 0 C3.63 0 7.26 0 11 0 C11 0.33 11 0.66 11 1 C7.7 1 4.4 1 1 1 C1 4.63 1 8.26 1 12 C1.99 12 2.98 12 4 12 C3.67 13.32 3.34 14.64 3 16 C2.34 16 1.68 16 1 16 C1 18.97 1 21.94 1 25 C-3.29 25 -7.58 25 -12 25 C-12 24.67 -12 24.34 -12 24 C-8.04 24 -4.08 24 0 24 C0 20.7 0 17.4 0 14 C-3.96 14 -7.92 14 -12 14 C-12 13.67 -12 13.34 -12 13 C-8.04 13 -4.08 13 0 13 C0 8.71 0 4.42 0 0 Z " fill="#3A2426" transform="translate(322,400)"/>
<path d="M0 0 C7.92 0 15.84 0 24 0 C24 0.33 24 0.66 24 1 C21.36 1.33 18.72 1.66 16 2 C15.835 3.27875 15.67 4.5575 15.5 5.875 C15.4071875 6.59429687 15.314375 7.31359375 15.21875 8.0546875 C14.9627515 10.00498344 14.9627515 10.00498344 15 12 C17.97 12 20.94 12 24 12 C24 12.33 24 12.66 24 13 C20.04 13 16.08 13 12 13 C12 9.04 12 5.08 12 1 C8.04 1 4.08 1 0 1 C0 0.67 0 0.34 0 0 Z " fill="#EDD9C2" transform="translate(165,74)"/>
<path d="M0 0 C0.33 0 0.66 0 1 0 C1.33 2.97 1.66 5.94 2 9 C4.10232344 6.1315587 4.10232344 6.1315587 5 3 C6.32 3 7.64 3 9 3 C9.33 2.34 9.66 1.68 10 1 C8.02 1 6.04 1 4 1 C4 0.67 4 0.34 4 0 C6.31 0 8.62 0 11 0 C11 3.3 11 6.6 11 10 C7.37 10 3.74 10 0 10 C0 6.7 0 3.4 0 0 Z " fill="#1D1915" transform="translate(178,172)"/>
<path d="M0 0 C0.59355614 2.64860427 0.74209269 5.29197322 1 8 C-2.63 8 -6.26 8 -10 8 C-9.34 7.34 -8.68 6.68 -8 6 C-7.896875 5.175 -7.79375 4.35 -7.6875 3.5 C-7.460625 2.675 -7.23375 1.85 -7 1 C-2.77108434 -1.38554217 -2.77108434 -1.38554217 0 0 Z " fill="#CCA77D" transform="translate(139,151)"/>
<path d="M0 0 C0.09765625 6.15234375 0.09765625 6.15234375 0 8 C-0.33 8.33 -0.66 8.66 -1 9 C0.65 9.33 2.3 9.66 4 10 C4 10.33 4 10.66 4 11 C0.37 11 -3.26 11 -7 11 C-6.34 10.67 -5.68 10.34 -5 10 C-5.33 9.34 -5.66 8.68 -6 8 C-6.04022391 5.6670134 -6.04320247 3.33293334 -6 1 C-4 0 -4 0 0 0 Z " fill="#794949" transform="translate(136,136)"/>
<path d="M0 0 C3.3 0 6.6 0 10 0 C9.67 0.99 9.34 1.98 9 3 C9 2.34 9 1.68 9 1 C6.69 1.66 4.38 2.32 2 3 C2 5.64 2 8.28 2 11 C4.97 11 7.94 11 11 11 C11 7.37 11 3.74 11 0 C11.33 0 11.66 0 12 0 C12 3.96 12 7.92 12 12 C8.04 12 4.08 12 0 12 C0 8.04 0 4.08 0 0 Z " fill="#CDB698" transform="translate(129,268)"/>
<path d="M0 0 C3.96 0 7.92 0 12 0 C12 3.63 12 7.26 12 11 C8.37 11 4.74 11 1 11 C1 14.63 1 18.26 1 22 C0.67 22 0.34 22 0 22 C0 17.71 0 13.42 0 9 C4.05047576 7.64984141 6.7920168 8.37915002 11 9 C11 6.36 11 3.72 11 1 C7.37 1 3.74 1 0 1 C0 0.67 0 0.34 0 0 Z " fill="#D68948" transform="translate(140,160)"/>
<path d="M0 0 C3.63 0 7.26 0 11 0 C11 0.66 11 1.32 11 2 C8.36 2 5.72 2 3 2 C2.34 4.64 1.68 7.28 1 10 C2.32 9.67 3.64 9.34 5 9 C5.33 8.34 5.66 7.68 6 7 C6.33 7.66 6.66 8.32 7 9 C7.66 8.34 8.32 7.68 9 7 C9 7.66 9 8.32 9 9 C9.99 9 10.98 9 12 9 C12 9.66 12 10.32 12 11 C8.04 11 4.08 11 0 11 C0 7.37 0 3.74 0 0 Z " fill="#C8AD90" transform="translate(153,75)"/>
<path d="M0 0 C2.66666667 0 5.33333333 0 8 0 C7.67 2.31 7.34 4.62 7 7 C4.69 7 2.38 7 0 7 C0 4.69 0 2.38 0 0 Z " fill="#201F21" transform="translate(300,270)"/>
<path d="M0 0 C3.96 0 7.92 0 12 0 C12 3.96 12 7.92 12 12 C11.34 12 10.68 12 10 12 C8.375 10 8.375 10 7 8 C7.99 8 8.98 8 10 8 C10 5.69 10 3.38 10 1 C7.03 1 4.06 1 1 1 C1 4.63 1 8.26 1 12 C0.67 12 0.34 12 0 12 C0 8.04 0 4.08 0 0 Z " fill="#3C2924" transform="translate(201,195)"/>
<path d="M0 0 C0 0.33 0 0.66 0 1 C-3.63 1 -7.26 1 -11 1 C-11 4.96 -11 8.92 -11 13 C-15.29 13 -19.58 13 -24 13 C-24 12.67 -24 12.34 -24 12 C-20.04 12 -16.08 12 -12 12 C-12 8.37 -12 4.74 -12 1 C-15.96 1 -19.92 1 -24 1 C-24 0.67 -24 0.34 -24 0 C-15.83325905 -0.94120241 -8.16674095 -0.94120241 0 0 Z " fill="#7E7267" transform="translate(213,74)"/>
<path d="M0 0 C0.125 5.75 0.125 5.75 -1 8 C-2.65 8 -4.3 8 -6 8 C-6 6.02 -6 4.04 -6 2 C-6.66 1.67 -7.32 1.34 -8 1 C-5.29120665 -0.35439668 -2.99066732 -0.06501451 0 0 Z " fill="#642E40" transform="translate(308,330)"/>
<path d="M0 0 C0.33 0 0.66 0 1 0 C1.144375 1.0725 1.28875 2.145 1.4375 3.25 C1.85878325 6.79135103 1.85878325 6.79135103 2.75 9.25 C3 11 3 11 1.86206055 12.60473633 C-0.72152028 14.54064356 -2.34850546 14.26013989 -5.54296875 14.07421875 C-6.61611328 14.01943359 -7.68925781 13.96464844 -8.79492188 13.90820312 C-9.91447266 13.83537109 -11.03402344 13.76253906 -12.1875 13.6875 C-13.31865234 13.62626953 -14.44980469 13.56503906 -15.61523438 13.50195312 C-18.41125303 13.34858501 -21.20563763 13.18072046 -24 13 C-24 12.67 -24 12.34 -24 12 C-16.08 12 -8.16 12 0 12 C0 8.04 0 4.08 0 0 Z " fill="#261110" transform="translate(250,413)"/>
<path d="M0 0 C3.96 0 7.92 0 12 0 C12 3.96 12 7.92 12 12 C8.37 12 4.74 12 1 12 C1 9.69 1 7.38 1 5 C1.66 4.67 2.32 4.34 3 4 C3 5.65 3 7.3 3 9 C5.64 9.66 8.28 10.32 11 11 C11 7.7 11 4.4 11 1 C7.37 1 3.74 1 0 1 C0 0.67 0 0.34 0 0 Z " fill="#BA9186" transform="translate(165,183)"/>
<path d="M0 0 C0.33 0 0.66 0 1 0 C1 2.97 1 5.94 1 9 C3.64 8.67 6.28 8.34 9 8 C9.33 5.36 9.66 2.72 10 0 C10.33 0 10.66 0 11 0 C11 3.63 11 7.26 11 11 C7.37 11 3.74 11 0 11 C0 7.37 0 3.74 0 0 Z " fill="#201710" transform="translate(153,184)"/>
<path d="M0 0 C0.33 0 0.66 0 1 0 C1 4.29 1 8.58 1 13 C-0.464375 13.144375 -1.92875 13.28875 -3.4375 13.4375 C-6.51846698 13.53495826 -6.51846698 13.53495826 -9 15 C-9.23192865 16.51469448 -9.41215238 18.03754562 -9.5625 19.5625 C-9.64628906 20.38878906 -9.73007813 21.21507812 -9.81640625 22.06640625 C-9.87699219 22.70449219 -9.93757812 23.34257812 -10 24 C-10.66 23.67 -11.32 23.34 -12 23 C-11.67 19.37 -11.34 15.74 -11 12 C-7.37 12 -3.74 12 0 12 C0 8.04 0 4.08 0 0 Z " fill="#D7A470" transform="translate(152,159)"/>
<path d="M0 0 C3.96 0 7.92 0 12 0 C12 0.33 12 0.66 12 1 C11.04287109 1.09087891 11.04287109 1.09087891 10.06640625 1.18359375 C9.24011719 1.26738281 8.41382813 1.35117188 7.5625 1.4375 C6.32693359 1.55931641 6.32693359 1.55931641 5.06640625 1.68359375 C3.01337975 1.78930815 3.01337975 1.78930815 2 3 C1.91330568 4.4887186 1.89296506 5.981445 1.90234375 7.47265625 C1.90556641 8.37177734 1.90878906 9.27089844 1.91210938 10.19726562 C1.92048828 11.14279297 1.92886719 12.08832031 1.9375 13.0625 C1.94201172 14.01189453 1.94652344 14.96128906 1.95117188 15.93945312 C1.9629989 18.29303065 1.97947975 20.64648477 2 23 C1.34 23 0.68 23 0 23 C0 15.41 0 7.82 0 0 Z " fill="#684646" transform="translate(153,87)"/>
<path d="M0 0 C1.61877845 2.69796408 2.04348635 4.42036807 2.375 7.625 C2.60697604 11.0848971 2.60697604 11.0848971 5.0625 12.4375 C5.701875 12.623125 6.34125 12.80875 7 13 C4.36 13 1.72 13 -1 13 C-1.02686553 11.02090602 -1.04633375 9.04171029 -1.0625 7.0625 C-1.07410156 5.96035156 -1.08570313 4.85820312 -1.09765625 3.72265625 C-1 1 -1 1 0 0 Z " fill="#B4857F" transform="translate(190,194)"/>
<path d="M0 0 C0.33 0 0.66 0 1 0 C1.02187378 0.83192871 1.02187378 0.83192871 1.04418945 1.68066406 C1.11886897 4.20446242 1.21546025 6.72696654 1.3125 9.25 C1.34633789 10.55904297 1.34633789 10.55904297 1.38085938 11.89453125 C1.55443721 18.0532778 1.55443721 18.0532778 5 23 C3.35 23 1.7 23 0 23 C0 15.41 0 7.82 0 0 Z " fill="#BF8B85" transform="translate(129,208)"/>
<path d="M0 0 C3.96 0 7.92 0 12 0 C12 0.66 12 1.32 12 2 C8.7 2 5.4 2 2 2 C1.67 4.31 1.34 6.62 1 9 C0.67 9 0.34 9 0 9 C0 6.03 0 3.06 0 0 Z " fill="#FEECCB" transform="translate(129,183)"/>
<path d="M0 0 C3.63 0 7.26 0 11 0 C11 0.33 11 0.66 11 1 C8.03 1 5.06 1 2 1 C2.144375 2.27875 2.28875 3.5575 2.4375 4.875 C2.51871094 5.59429687 2.59992188 6.31359375 2.68359375 7.0546875 C2.91292961 9.07404316 2.91292961 9.07404316 4 11 C2.68 11 1.36 11 0 11 C0 7.37 0 3.74 0 0 Z " fill="#C1A792" transform="translate(189,99)"/>
<path d="M0 0 C3.63 0 7.26 0 11 0 C7 3 7 3 4.25 2.6875 C3.5075 2.460625 2.765 2.23375 2 2 C1.67 4.97 1.34 7.94 1 11 C0.67 11 0.34 11 0 11 C0 7.37 0 3.74 0 0 Z " fill="#B68A7D" transform="translate(286,135)"/>
<path d="M0 0 C3.63 0 7.26 0 11 0 C10.67 0.99 10.34 1.98 10 3 C5.545 3.495 5.545 3.495 1 4 C0.67 2.68 0.34 1.36 0 0 Z " fill="#2C2219" transform="translate(105,183)"/>
<path d="M0 0 C0.33 0 0.66 0 1 0 C1.33 3.3 1.66 6.6 2 10 C6.60742865 8.78955868 6.60742865 8.78955868 11 7 C11 8.32 11 9.64 11 11 C7.37 11 3.74 11 0 11 C0 7.37 0 3.74 0 0 Z " fill="#BC8B87" transform="translate(93,184)"/>
<path d="M0 0 C1.98 0 3.96 0 6 0 C4.02 0.99 4.02 0.99 2 2 C2 4.97 2 7.94 2 11 C1.34 11 0.68 11 0 11 C0 7.37 0 3.74 0 0 Z " fill="#EBECDB" transform="translate(346,389)"/>
<path d="M0 0 C0.33 0 0.66 0 1 0 C1 3.3 1 6.6 1 10 C1.99 9.67 2.98 9.34 4 9 C6.35188447 9.59793673 8.68925595 10.25881795 11 11 C11 11.33 11 11.66 11 12 C7.37 12 3.74 12 0 12 C0 8.04 0 4.08 0 0 Z " fill="#C7B191" transform="translate(250,328)"/>
<path d="M0 0 C3.96 0 7.92 0 12 0 C12 3.3 12 6.6 12 10 C11.67 10 11.34 10 11 10 C10.34 7.36 9.68 4.72 9 2 C6.03 1.67 3.06 1.34 0 1 C0 0.67 0 0.34 0 0 Z " fill="#7D4B47" transform="translate(153,243)"/>
<path d="M0 0 C2.475 0.495 2.475 0.495 5 1 C4.2884375 1.804375 4.2884375 1.804375 3.5625 2.625 C1.71813924 5.42842836 1.37543153 7.69620258 1 11 C0.67 11 0.34 11 0 11 C0 7.37 0 3.74 0 0 Z " fill="#BFA78D" transform="translate(165,365)"/>
<path d="M0 0 C0.99 0.33 1.98 0.66 3 1 C2.67 3.97 2.34 6.94 2 10 C1.34 10 0.68 10 0 10 C0 6.7 0 3.4 0 0 Z " fill="#191711" transform="translate(407,390)"/>
<path d="M0 0 C4.29 0 8.58 0 13 0 C13 0.33 13 0.66 13 1 C11.96939453 1.05607422 11.96939453 1.05607422 10.91796875 1.11328125 C10.01691406 1.17902344 9.11585938 1.24476562 8.1875 1.3125 C7.29417969 1.37050781 6.40085937 1.42851563 5.48046875 1.48828125 C2.69396 2.06313581 1.75864246 2.8206856 0 5 C0 3.35 0 1.7 0 0 Z " fill="#FBFBEC" transform="translate(286,99)"/>
<path d="M0 0 C2.31 0 4.62 0 7 0 C6.360625 0.309375 5.72125 0.61875 5.0625 0.9375 C3.06389179 1.8345163 3.06389179 1.8345163 2 3 C1.76924918 4.34747084 1.58846937 5.70377565 1.4375 7.0625 C1.293125 8.361875 1.14875 9.66125 1 11 C0.67 11 0.34 11 0 11 C0 7.37 0 3.74 0 0 Z " fill="#7C4745" transform="translate(322,135)"/>
<path d="" fill="#FFFFFF" transform="translate(0,0)"/>
<path d="" fill="#FFFFFF" transform="translate(0,0)"/>
<path d="" fill="#FFFFFF" transform="translate(0,0)"/>
<path d="" fill="#FFFFFF" transform="translate(0,0)"/>
<path d="" fill="#FFFFFF" transform="translate(0,0)"/>
<path d="" fill="#FFFFFF" transform="translate(0,0)"/>
<path d="" fill="#FFFFFF" transform="translate(0,0)"/>
<path d="" fill="#FFFFFF" transform="translate(0,0)"/>
<path d="" fill="#FFFFFF" transform="translate(0,0)"/>
<path d="" fill="#FFFFFF" transform="translate(0,0)"/>
<path d="" fill="#FFFFFF" transform="translate(0,0)"/>
<path d="" fill="#FFFFFF" transform="translate(0,0)"/>
<path d="" fill="#FFFFFF" transform="translate(0,0)"/>
<path d="" fill="#FFFFFF" transform="translate(0,0)"/>
<path d="" fill="#FFFFFF" transform="translate(0,0)"/>
<path d="" fill="#FFFFFF" transform="translate(0,0)"/>
<path d="" fill="#FFFFFF" transform="translate(0,0)"/>
<path d="" fill="#FFFFFF" transform="translate(0,0)"/>
<path d="" fill="#FFFFFF" transform="translate(0,0)"/>
<path d="" fill="#FFFFFF" transform="translate(0,0)"/>
<path d="" fill="#FFFFFF" transform="translate(0,0)"/>
<path d="" fill="#FFFFFF" transform="translate(0,0)"/>
<path d="" fill="#FFFFFF" transform="translate(0,0)"/>
<path d="" fill="#FFFFFF" transform="translate(0,0)"/>
<path d="" fill="#FFFFFF" transform="translate(0,0)"/>
<path d="" fill="#FFFFFF" transform="translate(0,0)"/>
<path d="" fill="#FFFFFF" transform="translate(0,0)"/>
<path d="" fill="#FFFFFF" transform="translate(0,0)"/>
<path d="" fill="#FFFFFF" transform="translate(0,0)"/>
<path d="" fill="#FFFFFF" transform="translate(0,0)"/>
<path d="" fill="#FFFFFF" transform="translate(0,0)"/>
<path d="" fill="#FFFFFF" transform="translate(0,0)"/>
<path d="" fill="#FFFFFF" transform="translate(0,0)"/>
<path d="" fill="#FFFFFF" transform="translate(0,0)"/>
<path d="" fill="#FFFFFF" transform="translate(0,0)"/>
<path d="" fill="#FFFFFF" transform="translate(0,0)"/>
<path d="" fill="#FFFFFF" transform="translate(0,0)"/>
<path d="" fill="#FFFFFF" transform="translate(0,0)"/>
<path d="" fill="#FFFFFF" transform="translate(0,0)"/>
<path d="" fill="#FFFFFF" transform="translate(0,0)"/>
<path d="" fill="#FFFFFF" transform="translate(0,0)"/>
<path d="" fill="#FFFFFF" transform="translate(0,0)"/>
<path d="" fill="#FFFFFF" transform="translate(0,0)"/>
<path d="" fill="#FFFFFF" transform="translate(0,0)"/>
<path d="" fill="#FFFFFF" transform="translate(0,0)"/>
<path d="" fill="#FFFFFF" transform="translate(0,0)"/>
<path d="" fill="#FFFFFF" transform="translate(0,0)"/>
<path d="" fill="#FFFFFF" transform="translate(0,0)"/>
<path d="" fill="#FFFFFF" transform="translate(0,0)"/>
<path d="" fill="#FFFFFF" transform="translate(0,0)"/>
<path d="" fill="#FFFFFF" transform="translate(0,0)"/>
<path d="" fill="#FFFFFF" transform="translate(0,0)"/>
</svg>
